<?xml version="1.0" encoding="UTF-8" standalone="no"?>
<!DOCTYPE svg PUBLIC "-//W3C//DTD SVG 1.1//EN"
"http://www.w3.org/Graphics/SVG/1.1/DTD/svg11.dtd">
<svg viewBox="0 0 2200 1237" version="1.1" xmlns="http://www.w3.org/2000/svg" xmlns:xlink="http://www.w3.org/1999/xlink">
<defs>
<clipPath id="c0_2"><path d="M196.1 968.8V256.5H2003.9V968.8Z"/></clipPath>
<clipPath id="c1_2"><path d="M196.1 968.7V256.5H2003.7V968.7Z"/></clipPath>
<clipPath id="c2_2"><path d="M-.2 1237.8V-.2H2200.3v1238Z"/></clipPath>
<clipPath id="c3_2"><path d="M0 181.5V65.9H84.8c24.8 .4 46.1 16.6 54.2 38.6c0 .1 0 .2 .1 .4c2 5.8 3.2 12.2 3.2 18.8c0 6.6 -1.4 13.4 -3.4 19.3c-7.9 22.2 -29.1 38.2 -54.2 38.5Z"/></clipPath>
<clipPath id="c4_2"><path d="M184.5 982.3V244.6h1834V982.3Z"/></clipPath>
<style type="text/css"><![CDATA[
.g0_2{
fill: #FFF;
}
.g1_2{
fill: #000;
}
.g2_2{
fill: none;
stroke: #000;
stroke-width: 4.583;
stroke-miterlimit: 10;
}
]]></style>
</defs>
<g clip-path="url(#c2_2)">
<path d="M0 0H2200V1237.5H0V0Z" class="g0_2"/>
<path d="M0 0H2200V1237.5H0V0Z" class="g0_2"/>
<image preserveAspectRatio="none" x="0" y="-480" width="2200" height="2199" xlink:href="img/1.jpg"/>
</g>
<path clip-path="url(#c3_2)" d="M0 181.5V65.9H142.2V181.5H0Z" class="g1_2"/>
<path clip-path="url(#c2_2)" d="M192.7 183.8H2200" class="g2_2"/>
<g clip-path="url(#c4_2)" opacity="0.6">
<path clip-path="url(#c0_2)" d="M196.4 256.8h1807V968.5H196.4V256.8Z" class="g0_2"/>
<path clip-path="url(#c1_2)" d="M196.4 256.8H2003.6V968.5H196.4V256.8Z" class="g2_2"/>
</g>
</svg>