<?xml version="1.0" encoding="UTF-8" standalone="no"?>
<!DOCTYPE svg PUBLIC "-//W3C//DTD SVG 1.1//EN"
"http://www.w3.org/Graphics/SVG/1.1/DTD/svg11.dtd">
<svg viewBox="0 0 2200 1237" version="1.1" xmlns="http://www.w3.org/2000/svg" xmlns:xlink="http://www.w3.org/1999/xlink">
<defs>
<clipPath id="c0_3"><path d="M-.2 1237.8V-.2H2200.3v1238Z"/></clipPath>
<clipPath id="c1_3"><path d="M0 181.5V65.9H84.8c24.8 .4 46.1 16.6 54.2 38.6c0 .1 0 .2 .1 .4c2 5.8 3.2 12.2 3.2 18.8c0 6.6 -1.4 13.4 -3.4 19.3c-7.9 22.2 -29.1 38.2 -54.2 38.5Z"/></clipPath>
<clipPath id="c2_3"><path d="M1220.3 1049.5V355.6h728.2v693.9Z"/></clipPath>
<style type="text/css"><![CDATA[
.g0_3{
fill: #FFF;
}
.g1_3{
fill: #000;
}
.g2_3{
fill: none;
stroke: #000;
stroke-width: 4.583;
stroke-miterlimit: 10;
}
]]></style>
</defs>
<g clip-path="url(#c0_3)">
<path d="M0 0H2200V1237.5H0V0Z" class="g0_3"/>
<path d="M0 0H2200V1237.5H0V0Z" class="g0_3"/>
<image preserveAspectRatio="none" x="0" y="-480" width="2200" height="2199" xlink:href="img/1.jpg"/>
</g>
<path clip-path="url(#c1_3)" d="M0 181.5V65.9H142.2V181.5H0Z" class="g1_3"/>
<path clip-path="url(#c0_3)" d="M192.7 183.8H2200" class="g2_3"/>
<path clip-path="url(#c2_3)" d="M1740.1 596.4c-3.9 -4.7 -7.7 -8.8 -11 -13.2c-4.5 -5.9 -9.1 -11.6 -13.2 -17.8c-3.1 -4.8 -5.2 -10.3 -7.5 -14.7c0 5.4 -.2 11.7 0 17.9c.7 19.3 -2.3 37.7 -12.1 54.7c-4.2 7.4 -9.6 13.6 -16.5 18.5c-4.7 3.4 -9.8 6.5 -14.3 10.1c-3.1 2.5 -5.9 5.2 -9 8c6.5 4.3 7.8 7.8 5.5 15c-1.4 4.3 -3.2 8.4 -5.2 12.3c-4.9 9.8 -7.2 20.2 -7 31.3c.2 5.6 0 11.1 0 16.7c9.5 1.3 17 5.2 22.5 12.6c6.4 8.3 8.8 17.4 4.9 27.7c-1.8 4.8 -5.4 8 -9.8 10.3c-4.1 2.1 -8.3 3.4 -12.9 3.8c-6 .3 -12.2 .1 -18.3 .1c-1.3 0 -2.4 0 -3.4 1.2c-6.8 8 -13.9 16 -20.9 24c-5.4 6.3 -10.1 13.2 -13.4 21c-3.9 9.3 -7.2 19 -10.7 28.4c-.4 .9 -.7 1.8 -.7 2.8c-.2 6.4 -2.6 12.1 -5.4 17.7c-4.7 9.4 -9.8 18.9 -14.3 28.5c-4.3 8.9 -7.7 18.2 -12 27.1c-4.7 9.8 -9.8 19.5 -14.7 29.3c-7.5 15 -13.3 30.7 -16 47.3c-1.4 9.2 -1.4 18.6 -2.2 28c-.2 1.3 0 2.6 0 3.9c-.4 0 -.5 .1 -.9 .1c-.3 -.9 -.6 -1.9 -.8 -2.9c-1.6 -12.1 -.5 -24 2.1 -35.9c4.1 -19.1 11.5 -36.9 20.1 -54.1c6.9 -13.7 13.4 -27.6 20.3 -41.5c4.9 -9.9 10.1 -19.9 15.2 -29.8c2.2 -4.4 4.5 -8.7 4.5 -13.8c0 -1.4 -.5 -3.1 -1.1 -4.5c-1 -2.3 -2.5 -4.6 -3.6 -6.9c-2.1 -4.4 -2.1 -8.8 0 -13.2c.6 -1.3 1.1 -2.6 1.6 -4.3c-.8 -.3 -1.3 -.4 -1.8 -.4c-5 -1 -7 -3.6 -6.2 -8.9c.3 -2.4 1 -4.7 1.5 -7.2c.2 -.9 0 -2.1 0 -3.7c-2.3 .5 -4.1 1 -5.7 1.5c-5.6 1.4 -8.2 -.7 -7.9 -6.6c.2 -1.8 .5 -3.4 .5 -5.2c0 -2.8 -1.1 -3.8 -3.7 -3.3c-2 .4 -3.9 1 -5.7 1.7c-5.6 1.9 -11.1 3.4 -17 3.2c-4.7 -.1 -9.2 2 -12.4 5.8c-3.9 4.5 -7.9 9.1 -11.1 14.2c-9.8 15.5 -19.1 31.1 -28.9 46.7c-7.4 11.6 -15 22.8 -23.2 33.9c-12.7 17.3 -25.6 34.6 -39.2 51.1c-11.4 13.9 -24 26.8 -36.1 40c-5 5.4 -10.9 9.8 -17.3 13.8c-.8 .5 -1.8 .8 -2.9 .8c.3 -.5 .7 -1 1.1 -1.3c12.4 -8.8 22.2 -20.4 32.4 -31.7c18.4 -20.6 35.2 -42.5 52 -64.5c5.1 -6.7 10.3 -13.1 15.1 -19.9c5.8 -8.5 11.6 -17.2 17.1 -26c10.1 -16.2 20.1 -32.5 30.4 -48.7c2.6 -4 6 -7.8 9.4 -11.4c4.4 -4.6 10 -6.7 16.2 -6.8c1 0 1.8 -.2 2.4 -.2c11 -18 16.2 -36.9 12 -57.8c-1.8 -8.7 -2.2 -17.3 .3 -26.1c1.1 -4.3 .8 -8.9 1.6 -13.3c.7 -3.2 1.5 -6.7 3 -9.6c2.1 -4.4 3.9 -8.8 4.5 -13.7c.2 -1.2 .5 -2.1 .7 -3.1c1.5 -6.7 5.2 -11.1 11.9 -11.9c9.5 -1.3 16 -6.4 20.9 -14.4c4.7 -7.5 11.1 -13.4 19.4 -17.2c-.8 -1.1 -1.4 -1.9 -2.1 -2.7c-7.2 -9.3 -10.8 -20.1 -12.9 -31.5c-2.1 -11 -2.9 -22.1 -2.3 -34.2c-1 1.7 -1.4 2.5 -1.9 3.3c-6.7 12.6 -16 22.9 -27.3 31.3c-9.3 7.1 -19.8 11.5 -31.8 11.1c-2.3 0 -4.4 -.3 -7.1 -.6c1.5 3.1 2.8 6.2 .9 9.6c-1.8 3 -4.9 4.1 -8 5.1c-.2 .6 -.4 1.1 -.4 1.6c-.6 6.4 -3.9 11.1 -9.1 14.6c-5.4 3.5 -11.3 5.3 -17.6 5.7c-3.6 .1 -6.1 1.3 -7.4 4.7c-1.9 4.7 -4.1 9.3 -6 14c-1.2 2.8 -2.1 5.9 -3.5 9.2c1.2 .8 2.5 1.6 4 2.4c7.6 4.8 13.7 11 17.8 19.1c4.4 9 2.1 17.4 -6.1 23.1c-7.5 5 -15.8 5.7 -24.5 4.2c-6.2 -1.1 -12 -3.2 -17.3 -6.7c-5.4 -3.4 -10.7 -7 -16 -10.6c-8.6 -5.9 -16 -12.9 -18.9 -23.8c-9 .5 -17.6 1.6 -23.8 8.6c-6.7 7.5 -14.9 12.6 -23.9 16.5c-6.8 3 -13 7.2 -18.9 11.9c-5.9 4.8 -11.8 9.7 -17.8 14.4c-1.8 1.5 -2.6 3.1 -2.8 5.4c-.1 2.6 -1 5.2 -1.5 7.7c-4.7 .8 -8.9 1.4 -13 2.1c-2.3 7.3 -6.9 12.2 -12.9 16.3c-7.5 4.9 -14.9 10.3 -22.2 15.7c-6.9 4.9 -13.6 10 -20.3 15c-4.4 3.3 -8.4 6.9 -12.7 10.3c-1.6 1.3 -3.1 2.9 -5.5 2.9c1.1 -1.6 2.1 -3.5 3.6 -4.9c2.6 -2.6 5.2 -5 8 -7.1c12.4 -9.3 24.8 -18.5 37.2 -27.8c5 -3.8 10.3 -7.5 15.5 -11.4c4.6 -3.6 6.2 -8.4 5 -14.1c-1.3 -7 -2.9 -14 -4 -21c-2.3 -13.6 -4.3 -27.3 -6.4 -40.9c-.3 -2.2 -.8 -4.5 -1.5 -6.7c-.6 -2.2 -1.4 -2.9 -3.7 -2.2c-1.5 .5 -3.1 1.1 -4.4 1.9c-3.8 2.5 -7.5 4.6 -11 7.5c-9.1 7.7 -19.2 13.3 -29.8 18.3c-4.5 2 -8.7 4.3 -12.9 6.2c-1.2 .5 -2.5 1 -3.6 1.5c-.2 -.2 -.4 -.5 -.5 -.7c1 -.6 1.9 -1.4 2.9 -1.9c4.9 -2.8 9.8 -5.4 14.7 -8.2c8.8 -5.4 17.5 -10.8 26.1 -16.3c4.6 -2.8 9 -5.6 13.6 -8.3c1 -.5 1.9 -1 2.9 -1.3c4.3 -1.7 5.9 -.9 7.8 3.4c5.1 -2.1 7.2 -7.4 11.6 -11c1 2.3 1.7 4.5 2.7 6.9c2.9 -1.6 5.8 -3.3 8.8 -4.9c6.2 -3.4 12.2 -7 18.4 -10.4c8.3 -4.6 15.2 -10.7 19.9 -18.8c5.7 -10 11.3 -20.3 16.7 -30.6c6.8 -12.9 13.4 -25.8 20.1 -38.7c.1 -.3 .3 -.8 .5 -1.3c-6.7 .4 -13.1 1.8 -18.8 4.9c-5.1 2.8 -10.1 5.9 -14.9 9.5c-9.8 7.5 -19.2 15.2 -28.7 23.2c-4.3 3.6 -7.8 7.8 -11.9 11.4c-10.3 9.2 -20.4 18.6 -31 27.3c-14.1 11.4 -28.6 22.4 -43 33.6c-3.7 3 -7.2 5.9 -10.9 8.8c-1 .9 -2.1 1.4 -3.1 2.2c-.2 -.4 -.5 -.5 -.7 -.8c1.3 -1.4 2.5 -2.8 3.8 -3.8c7.8 -6.2 15.7 -12.4 23.7 -18.5c19.4 -14.8 38.5 -30 56.3 -46.8c2.9 -2.8 5.5 -5.9 8.3 -9c-15.7 -14.5 -20.6 -33.3 -19.9 -54.1c-.7 0 -1.2 0 -1.5 .2c-14.4 5.6 -28.9 10.8 -43.1 16.7c-12.6 5.2 -24.5 11.9 -33.9 22c-3 3.1 -5.6 6.5 -8.7 10.1c.2 -3.4 2 -5.4 3.6 -7.3c4.7 -5.7 10.3 -10.6 16.3 -14.9c8.7 -6 18.3 -10.4 27.9 -14.3c22.9 -9.2 45.6 -18.5 67.3 -30.3c14 -7.6 29.1 -12.2 44.7 -15.3c10 -2 19.5 -5.1 28.9 -8.7c10.6 -3.9 21.2 -7.3 31.9 -11.4c14.2 -5.2 27.5 -3.9 40.3 4.3c1 .6 2.1 1.1 3.1 1.6c0 0 .1 0 .6 -.2c-.6 -1.1 -1.1 -2.3 -1.8 -3.4c-10.2 -19.8 -16.3 -40.7 -17.1 -63.2c-.5 -13.1 2.4 -25.5 6.9 -37.7c5.3 -15.4 12.9 -29.6 22.5 -42.6c.8 -1.2 1.8 -2.5 2.3 -3.8c1.4 -3.6 4.2 -5.4 7.6 -6.5c5.9 -1.8 12.1 -2 18.2 -1.3c16.6 1.8 32.3 6.8 46.7 16.1c4 2.7 7.8 5.9 11.4 9.5c3.2 3.3 5 7.5 3.4 12.6c-.5 1.6 -.3 3.4 -.3 5.2c.3 10.8 -1.3 21.4 -3.4 31.9c-.9 4.4 -2.7 8.4 -4 13.2c17.8 5.9 35.3 12.6 49.2 25.6c17 -2.8 33.8 -4.6 50.7 -2.4c6.6 .8 12.9 1.4 19 4.2c1.8 .8 3.6 1.6 5.2 2.8c3.3 1.9 4.9 4.9 4.9 9c0 9.8 .5 19.7 1.1 29.5c1 -4.7 1.7 -9.8 3.1 -14.3c2.3 -7.4 4.8 -14.7 7.9 -21.8c4.9 -11.4 9.9 -22.7 15.3 -33.9c3.9 -8 8.5 -15.7 12.6 -23.5c1.3 -2.7 2.3 -5.4 3.1 -8.2c.7 -2.1 1.8 -3.8 3.9 -4.1c2.6 -.5 5.2 -1.1 7.9 -1.1c19.2 -.4 38 3.1 56.3 8.6c8.3 2.6 16.5 6.1 24.5 9.3c2.4 1 4.7 3 7 4.6c2.3 1.8 2.9 4.4 2.8 7.5c-.5 8.3 -.7 16.8 -.5 25.2c.1 18.6 -1 37 -2.6 55.5c-.9 9.6 -2.3 19.2 -4.9 28.7c-5.8 21.2 -18.5 37.2 -36.9 48.5c-6.9 4.1 -14.2 7.5 -21.3 11.1c-.9 .5 -1.8 1 -3.1 1.7c4.1 5.7 8.9 10.7 14.2 14.8c2.3 1.6 4.6 3.3 6.9 4.7c14.2 9.7 21.5 23.6 23.3 40.5c.5 4.6 .2 9.2 .4 13.8c.5 8.5 1 16.9 1.6 25.4c.2 2.8 .8 5.8 4.6 6.1c1.1 .1 2.4 1.1 3.2 2.1c4.3 4.7 8.9 9 12.3 14.4c9.9 15.5 21.7 29.2 34.4 42.4c2.3 2.5 5.1 4.4 7.7 6.4c4.1 3.1 8.3 5.9 12.2 9c10 8.1 21.3 9.9 33.3 8.1c3.5 -.5 7.1 -.8 11.3 0c-1.3 .7 -1.8 1.2 -2.4 1.2c-7.1 1 -14.2 2.3 -21.3 2.4c-7.5 .4 -14.2 -2.9 -20.2 -7.2c-8 -5.7 -15.8 -11.2 -23.7 -17.1c-2.3 -1.8 -4.1 -4.6 -6 -6.9c-3.4 -4 -6.9 -8.3 -10.5 -12.2c-6.7 -7.5 -12 -15.8 -17.4 -24c-2.6 -3.9 -5.7 -7.4 -8.8 -10.9c-1 -1 -2.3 -1.8 -3.6 -2.5c-3.3 -1.5 -4.9 -1.1 -7.4 1.6c-4.7 5.4 -9.3 10.8 -13.7 16.4c-8.2 10.4 -16 21.2 -24.2 31.6c-13.2 17.2 -21.2 36.8 -27.1 57.5c-3.1 11.1 -6 22.2 -11.2 32.5c-2.3 4.3 -4.9 8.3 -7.2 12.6c-2.8 5.4 -5.9 10.6 -8 16.3c-4.9 12.9 -2.3 24.8 6.7 35c3.1 3.4 6.8 6.3 10.4 9.3c2.5 1.9 5.3 3.7 7.9 5.5c7.5 5.2 14.7 11.1 20.9 18.1c1.8 2 3.7 4 5.5 5.9c9.8 10.2 21.6 16.5 35.3 19.1c6.8 1.3 13.7 3 20.6 4.8c18.7 4.5 34.4 14.3 47.3 29c5.9 6.7 12.1 13.3 18.3 19.8c2.4 2.6 5.2 4.9 7.8 7.3c1 1 2.1 2 3.1 3c-.1 .1 -.3 .5 -.5 .6c-1 -.5 -1.9 -.9 -2.7 -1.6c-8.5 -6.2 -15.7 -13.7 -22.7 -21.6c-2.3 -2.6 -4.6 -5.2 -7.1 -7.8c-13 -14.5 -29.3 -23.2 -48.1 -27.4c-6.4 -1.5 -12.8 -2.8 -19.1 -4.1c-13.2 -2.6 -24.7 -9 -34.1 -18.6c-4.1 -4.1 -7.7 -8.7 -11.6 -12.8c-2.3 -2.4 -4.9 -4.5 -7.5 -6.5c-5.8 -4.2 -11.5 -8.3 -17.2 -12.6c-6.5 -4.9 -11.9 -10.7 -15.2 -18.4c-3.7 -8.8 -4 -18 -.8 -27c2 -5.2 3.9 -10.4 6.9 -15c9.3 -15.2 15.8 -31.5 20.5 -48.6c3.3 -11.6 7.6 -22.9 13.3 -33.7c-4.6 -5.5 -7.9 -11.7 -9.2 -18.9c-1.3 -6.9 -2.7 -13.7 -4.1 -20.8c-.1 -.8 -.4 -1.4 -.6 -2.4c-9.8 3.9 -19.6 2.9 -29.6 1.6c-4.5 -.6 -9.1 -1.6 -13.5 -2.9c-3.1 -1 -6.2 -2.6 -8.8 -4.6c-5.9 -4.6 -8.2 -10.8 -6.4 -18.3c1.8 -7.3 6.9 -11.2 14.2 -12.4c1.3 -.2 2.6 -.3 4.4 -.5c-.6 -1.1 -1.3 -1.8 -1.6 -2.8c-1.5 -3.1 -3.4 -6.2 -4.4 -9.4c-1.6 -5.7 -.2 -8.5 5 -11.5c-3.2 -8.3 -.9 -16.3 2.5 -24c-1 -1.9 -2 -3.7 -2.6 -5.7c-1.6 -5 -.3 -9.8 3.2 -13.5c4.8 -4.8 9.8 -9 14.9 -13.4c.8 -.8 2 -1.3 3.3 -2.3c-2.6 -1 -5.1 -1 -7.5 -.7c-4.3 .5 -8.5 1 -12.6 1.3c-3.3 .4 -6.5 0 -8.3 -3.4c-1.7 -3.2 -.9 -6.7 1.1 -9.5c2.1 -2.7 4.4 -5.3 7 -7.5c4.9 -4 10.6 -6.5 16.8 -8.1c.9 -1.5 1.7 -1.8 3.5 -2.3Zm-251.1 15c-2.1 -.8 -1.6 -2.6 -1.3 -4.1c.6 -3.4 1.6 -6.7 2.4 -10.6c-2.3 -.2 -4.5 -.5 -6.7 -.6c-1.4 6.5 -2.7 12.4 -4 18.9c3.4 -1.5 6.5 -2.6 9.6 -3.6c2.3 -.3 4.7 -.5 7.2 -.8c0 -.2 0 -.5 0 -.7c-1.8 -.8 -3.8 -1.6 -5.6 -2.4c-.6 1.5 -1.1 2.6 -1.6 3.9Zm258.1 -7.2c4.2 -5.7 8.8 -9.6 15.7 -8.6c7 .9 10.2 5.8 11.4 12.1c9.1 -5.1 18.3 -9.7 27.1 -14.9c5.9 -3.4 11.6 -7.4 16.5 -11.9c14.3 -13.1 22.5 -29.7 25.1 -49c2.1 -16.8 3.8 -33.7 4.9 -50.5c1 -13.7 1 -27.6 1.5 -41.3c0 -.5 -.2 -1 -.3 -1.6c-7.4 2.6 -14.6 2.1 -21.9 1.5c-15.7 -1.4 -31.2 -4.3 -46.4 -9.4c-7.3 -2.4 -14.3 -5.3 -21.5 -8.3c-3.3 -1.5 -6.2 -3.7 -9.5 -5.7c-2.6 5.1 -5.4 10 -7.8 15.2c-4.6 9.5 -9.2 18.9 -13.4 28.6c-3.4 7.8 -6.2 15.8 -9.5 23.6c-5.5 13.1 -9 26.5 -10.1 40.7c-1.2 15.3 1.6 29.7 10.6 42.3c2.9 4.1 5.9 8 9 11.9c6.7 7.7 14.3 14.9 18.6 25.3Zm-119.5 -121c-2.8 8 -5.2 15.9 -8 23.7c-2.8 8.2 -5.6 16.3 -8.5 24.5c-3.6 9.6 -7.3 19.1 -10.9 28.7c-1 2.5 -1.7 5.3 -1.8 7.9c-1.2 14.3 0 28.7 3.2 42.8c3.3 14.7 10 27.2 22.6 36c7 4.9 12.5 11 13.5 19.8c5.2 -2.4 10.5 -4.7 16 -7.3c1 -3.1 3.6 -5.6 6.4 -7.7c3.7 -2.8 7.5 -5.4 11.6 -8c6 -3.9 12 -7.9 16.6 -13.7c9.7 -12.1 14.5 -26.3 16.5 -41.5c.5 -3.9 1.3 -7.9 .5 -11.8c-2.9 1.2 -5.7 2.5 -8.5 3.1c-7.2 1.8 -14.7 2.5 -22 2.3c-17.8 -.6 -35.3 -4.2 -52.1 -10.3c-4.1 -1.4 -8 -3.7 -11.9 -5.7c-.8 -.3 -1.3 -1.3 -2 -1.8c5.2 1.7 10 3.9 15 5.9c15.4 5.7 31.2 8.3 47.5 8.8c6.9 .2 13.8 -.1 20.6 -.6c2.9 -.2 6.1 -1.2 8.8 -2.3c5.6 -2.3 6.4 -6.6 2 -10.6c-1.6 -1.5 -3.6 -3 -5.6 -4c-4.2 -2.1 -8.6 -4 -13 -5.8c-22.1 -8.4 -44.9 -11.8 -68.3 -8.9c-.6 0 -1.3 -.1 -2.9 -.3c3.6 -1.8 6.7 -1.9 9.6 -2.1c11.6 -.8 23 -.2 34.5 1.8c7 1.1 14 2.6 21 4.4c10 2.6 19.3 6.7 27.6 13.7c-.3 -26.6 -.8 -52.6 -1.1 -79c-6.2 2.8 -12.6 2.6 -19 2.4c-10.9 -.1 -22 -.6 -32.9 -.8c-8.5 -.5 -16.5 -1.1 -25 -3.6Zm-205.7 87.1c-9.3 -3 -19.8 .9 -24.7 9.1c-1.3 2.1 -2.4 4.4 -3.5 6.7c-6.7 13.7 -13.3 27.4 -20 41c-4.5 9.5 -9.1 18.9 -15.8 27.1c-2.1 2.6 -4.7 5.2 -7.5 7c-6.5 3.9 -13.2 7.5 -19.9 11.1c-5.2 2.8 -10.6 5.4 -16 8.2c7.3 19.6 9.9 40.3 14.5 60.4c.3 -.2 .7 -.2 .8 -.3c.7 -.7 1.5 -1.2 2.1 -1.8c12.9 -11.5 26.2 -22.2 42.2 -28.9c5 -2.1 9.3 -5.7 12.9 -10c6.3 -7.7 14.3 -11.6 24.1 -12.6c7.5 -.8 14.6 -2.7 20.9 -7c2.3 -1.6 4.6 -3.2 7 -4.7c5.1 -3.3 9.2 -7.4 11.5 -13.1c1.8 -4.4 4.7 -7.7 8.5 -10.4c2.2 -1.8 4.9 -3.5 7 -5.4c8.1 -7.4 17.8 -11.1 28.2 -12.9c5.1 -.8 10.1 -1.7 15.5 -2.5c-1.1 -1.3 -1.9 -2.1 -2.6 -3.1c-.6 -1.4 -1.5 -2.9 -1.6 -4.4c-.2 -3.7 1.9 -6.3 5.4 -7.8c2.4 -1 5.2 -1.5 7.6 -2c-2.7 -1.8 -4.9 -2.6 -8.6 -2.6c-8.2 0 -16.2 .8 -24 3.1c-7 2.1 -13.9 4.4 -20.9 6.2c-3.4 .8 -7 1.2 -10.6 1.2c-2.5 .1 -3 -1 -2.5 -3.5c.5 -2.6 1 -5.2 1.3 -8c.4 -2.4 .5 -4.9 .9 -7.2c.6 -5 3.5 -8.3 8.1 -9.9c4.1 -1.5 8.3 -1.8 12.6 -1.3c4.4 .6 8.8 1.4 13.4 1.9c1.6 .2 3.2 1.3 4.5 -.1c-2.2 -7.2 -4.5 -14.2 -6.6 -21.4c-4 -.5 -7.7 -.8 -11.5 -1.5c-5.2 -1 -10.4 -2.1 -15.5 -3.1c-7.8 -1.5 -14.7 .5 -20.1 6.7c-1.8 2 -3.2 4.3 -4.9 6.4c-.4 .6 -1.1 1.1 -1.6 1.6c-.2 -.2 -.3 -.5 -.6 -.6c2.9 -6.1 7.3 -10.7 13.3 -14.7c-2.2 -.5 -3.7 -1 -5.3 -1.3c-7.4 -1.2 -13.1 1.3 -17.2 7.6c-1.3 2 -2.3 3.9 -3.4 5.9c-.8 1.5 -1.8 2.8 -3.9 2.8c1.9 -3.8 4.2 -7.7 6.5 -11.9Zm84.7 -38.6c.2 -.3 .3 -.6 .5 -.8c3.8 1.3 7.4 2.9 11.1 4.1c11.4 3.6 23.2 5.2 35.1 6c12.4 .8 24.7 .8 36.7 -2.1c4 -1 7.9 -2.4 11.6 -4.2c3 -1.5 3.1 -4.1 .5 -6.2c-1.8 -1.5 -3.7 -2.7 -5.7 -3.6c-10.6 -5.4 -22.2 -7.1 -33.8 -8.4c-12.7 -1.4 -25.4 -1.6 -38 0c-6.4 .9 -12.6 1.8 -18.3 4.9c-.5 .4 -1.1 .4 -2.5 .9c2 -2.8 4.3 -3.5 6.6 -4.3c8 -2.8 16.3 -3.6 24.6 -3.9c14.6 -.7 28.9 .1 43.1 3.3c7 1.4 14.1 3.5 20.9 6c3.9 1.3 7.4 3.9 8 9.3c7.9 -15.7 10.6 -32.7 17.7 -48.8c-4.8 0 -8.9 .5 -12.8 -.2c-16.6 -2.6 -32.3 -8.5 -46.8 -17.1c-4.9 -3 -9.5 -6.6 -13.9 -10.2c-2.1 -1.6 -3.4 -4.2 -5.1 -6.3c-3.9 5.2 -7.5 10.3 -11.6 15.2c-14.2 16.6 -26.4 34.7 -36.7 54.3c-8.5 16.4 -11.3 33.5 -8.6 51.5c1.8 13.2 5.8 25.9 16.3 35.1c.6 .5 .8 1.6 1.1 2.6c-.1 .2 -.5 .3 -.6 .5c-1.3 -.5 -2.5 -1 -3.9 -1.6c-.2 .6 -.4 1.3 -.7 2.1c1.5 0 2.9 0 4.2 0c6.1 -.4 11.6 .6 16.7 4.2c.5 .3 1 .5 1.5 .7c10.6 2.9 20.7 1.8 30.3 -3.3c10.8 -5.5 19.1 -13.9 27 -23.2c5.2 -6.3 9.6 -13.2 12.7 -20.9c3.6 -9.6 7.3 -19.1 11.1 -28.7c.3 -.8 .7 -1.8 1.1 -3.4c-3.9 3.5 -8 5.3 -12.4 5.8c-7 1 -13.8 1.8 -20.9 2.3c-13 .7 -25.9 -.3 -38.8 -2.4c-7.7 -1.3 -15.4 -3 -22.5 -6.2c-1.8 -1 -3.3 -2.2 -4.8 -3Zm107.6 110.9c-7.2 2.6 -12.6 7.7 -17.1 13.6c-2.6 3.2 -4.9 6.6 -7.5 9.9c-2.8 3.6 -6.4 6.1 -10.8 7.2c-1.7 .5 -3.3 1 -5.1 1.3c-7 1.1 -10.6 5.4 -11.6 12.4c-.8 5.9 -2.7 11.4 -5.5 16.8c-1.5 2.8 -1.8 6.2 -2.5 9.3c-.8 5.4 -1.3 10.8 -2.3 16c-.8 4.6 -1.3 9.2 -.3 13.8c.8 4.2 1.6 8.5 2.3 12.7c1.8 14.4 1.8 28.4 -5.2 41.5c-1.3 2.4 -2.5 5 -3.6 7.6c-.3 .9 -.7 1.7 -1.2 3.1c3.3 -1.1 6.1 -2.1 8.9 -2.9c7.5 -2.3 10.9 .7 10.6 8.3c-.2 2.2 0 4.3 0 6.7c1.9 -.1 3.2 -.3 4.4 -.5c1.1 -.1 2.3 -.6 3.4 -.8c3.4 -.5 5.6 1.2 5.4 4.6c0 2.3 -.7 4.6 -1 6.9c-.1 1.4 -.5 2.9 -.6 4.4c-.2 1.9 .6 3.1 2.6 3.4c.6 .2 1.3 .2 1.9 .3c3.1 .7 4.1 2.1 3.1 5.2c-.5 1.8 -1.1 3.6 -1.8 5.4c-2.1 5.6 .2 10 3.3 14.7c2 -5.8 3.8 -11.1 5.6 -16.5c2.9 -8.6 6.5 -16.8 11.4 -24.5c5.4 -8.4 12.1 -15.6 18.8 -23c6 -6.5 11.5 -13.4 16.3 -20.9c9.4 -15 11.2 -31.8 10.6 -49.1c-.2 -4.1 -.3 -8.2 -.3 -12.3c0 -10.4 2.1 -20.4 6.7 -29.7c1.6 -3.3 3.2 -6.5 4.5 -9.8c1 -2.3 1.8 -4.6 2 -7c.8 -5.9 -2.3 -8.7 -8 -7.7c-5.1 .8 -9.2 3.4 -12.9 6.9c-5.1 4.7 -8.3 10.4 -10.1 17.1c-.7 2.6 -1.5 5.2 -2.2 7.9c-1.1 -3 -2.6 -5.4 -2.2 -8.9c.8 -8.5 2.2 -16.8 4.7 -25c1 -3.1 0 -5.2 -2.1 -7c-3.9 -3.7 -8.2 -7.5 -12.6 -11.4ZM1828.4 714c-3.6 -7.7 -4.6 -16.4 -4.3 -25.8c.4 -8 1.2 -16 -.1 -23.9c-2.3 -14.7 -8.5 -26.9 -20.8 -35.4c-8.4 -5.9 -16 -12.4 -21.8 -21.4c-1.3 1 -2.3 1.9 -3.6 2.8c-3 1.6 -3.6 4.2 -3.8 7.5c-.3 10.9 1.2 21.7 4.9 31.8c3.6 9.8 8.3 19.1 17.2 25.3c.3 .2 .3 .7 .5 1c-1.5 0 -3 -.5 -4 -1.3c-1.9 -1.8 -4 -3.6 -5.5 -5.7C1779.2 658.1 1774.4 646 1773 632.8c-.8 -7.5 -.6 -15 -.8 -22.7c-.1 -4.7 -1.6 -8.8 -6 -11.1c-4.4 -2.3 -8.8 -1.8 -12.7 1.5c-4.1 3.2 -6.9 7.6 -7.6 12.9c-1.9 14.2 -1.3 28.4 2.2 42.3c1.9 7.8 2.9 15.6 2.4 23.6c-.3 8.7 -.3 17.3 -.3 26c0 8.8 1 17.6 5.4 25.5c4.5 8 6.3 16.8 8 25.8c1 6.2 2.9 12.2 4.7 18.3c1.2 3.7 3.3 7 6.4 9.4c16.3 -24.9 34.1 -48.1 53.7 -70.3ZM1582.2 397.5c-3.6 1.1 -6.5 2.1 -9.5 2.8c-6.5 1.4 -13.2 .6 -19.7 -.5c-11.8 -2.1 -23 -6.2 -33.8 -11.6c-9.1 -4.7 -18 -9.8 -22.2 -20.3c-.3 .2 -.7 .4 -.8 .5c-.7 .8 -1.3 1.8 -2 2.6c-9.5 14.2 -17 29.3 -21.9 45.8c-3.4 11.1 -4.9 22.5 -3.7 33.9c2.1 22.6 9.3 43.5 20.6 63.1c.3 .6 .9 1.4 1.1 2.1c.3 2.6 2 3.6 4.1 4.2c.3 -.1 .6 -.3 .6 -.5c.5 -.9 1.2 -1.8 1.7 -2.7c9.6 -19.6 22.5 -36.9 36.5 -53.4c4.6 -5.3 9 -10.8 12.8 -16.7c2.3 -3.6 4.9 -5.7 8.9 -5.5c5.4 .1 10.8 .8 16.2 1.3c1 .1 2 .1 3.1 .3c6 -14.5 7.2 -29.9 8 -45.4ZM1440.7 539.1c7.2 0 13.5 0 19.9 0c-.2 -2.8 -.2 -5.1 -.3 -7.4c.3 0 .6 -.1 .9 -.1c.5 2.2 1.2 4.7 1.7 7.1c2.9 -.3 5.5 -.6 8.1 -.9c-.6 -3.5 -.9 -6.4 1.2 -9.3c1.1 3.1 -1.2 6.3 2.1 9.1c4.1 -1.3 8.3 -2.6 12.6 -4.1c.9 -.3 2.1 -1 2.4 -1.8c1.5 -2.8 2.6 -5.9 3.9 -9c-8.5 -4.4 -16.6 -8.6 -24.8 -12.5c-5.9 -3 -12.2 -3.3 -18.6 -1.8c-11.6 2.6 -22.8 6.8 -33.9 11.1c-12.1 4.5 -24 9.3 -36.8 11.6c-16.8 2.9 -32.3 9.3 -47 17.8c-2 1.1 -3.1 2.4 -3.3 4.9c-.8 12.7 2 24.6 7.7 35.9c2.1 3.9 5.1 7 8.5 10.1c1.3 -1.1 2.5 -2.1 3.6 -2.9c5.9 -4.6 11.8 -9.3 17.8 -13.7c8.5 -6.1 17.8 -10.2 28.2 -10.8c4.1 -.2 7.5 -1.2 11.1 -3.3c1.8 -1 4.1 -1.5 6.1 -1.5c3.2 -.1 6.5 .5 9.8 .5c1.1 0 2.4 0 3.2 -.5c7.2 -5.2 14.9 -4.9 22.7 -1.9c1 .3 2 .3 3.1 .5c4.3 .3 8.5 .5 12.6 1.1c7.3 1 14.5 2.3 22.4 3.4c-2.3 -11.5 -.5 -22.8 1.9 -33.8c-8.6 1.4 -16.8 2.8 -25 4c-4.4 .6 -8.9 .8 -13.5 .9c-2.5 -.3 -5.4 -.4 -8.3 -2.7ZM1419 689.6c.9 2.3 1.6 4.3 2.4 6.1c2.8 5.5 7 9.8 12.1 13.2c8 5.4 16.1 10.9 24.5 15.8c6.5 3.8 13.9 5.3 21.5 4.3c5.2 -.7 10 -2.5 13.9 -6.2c4.9 -4.8 5.9 -10.5 2.9 -16.7c-.8 -1.6 -1.8 -3.4 -2.9 -4.7c-4.2 -4.6 -8.7 -9.2 -13.1 -13.6c-1.3 -1.3 -3.1 -2.4 -4.5 -3.6c-5.3 4.1 -7.7 4.3 -10.3 1.2c.1 -.2 .3 -.5 .6 -.5c.4 -.2 .9 -.2 1.2 -.2c3.7 .7 5.7 -1.3 7.2 -4.4c.9 -2.1 1.8 -4.2 2.4 -6.4c4.1 -13.5 11.8 -24.9 19.8 -36.4c.5 -.6 .9 -1.4 1.6 -2.4c-2.3 .3 -4.1 .5 -5.9 .6c-2.1 .2 -3.4 1.3 -4.2 3.5c-3.5 7.6 -6.9 15.2 -10.8 22.5c-2.4 4.6 -5.2 9 -8.2 13.4c-1.1 1.8 -2.6 3.7 -5.5 4.4c.5 -1.3 .8 -2.3 1.3 -3.3c-3.9 -2.3 -8.2 -3.4 -12.4 -4.4c-2.6 -.6 -4.4 0 -6.4 1.8c-6.5 6.2 -13.7 11.6 -22.3 14.2c-1.5 .8 -3 1.3 -4.9 1.8ZM1565.1 397.8c2.6 -.3 6.3 -.5 10.1 -1.4c7.3 -2 9.1 -6.9 4.6 -13.1c-2.3 -3.1 -5.1 -6.1 -8.2 -8.2c-15.8 -11.1 -33.5 -16.8 -52.4 -17.8c-4.4 -.1 -9 .5 -13.2 2c-6.6 2.1 -7.9 6.8 -3.6 12.6c2.4 3.1 5.4 6 8.5 8.3c15.8 11.7 33.8 16.6 54.2 17.6Zm283.4 36.3c-.2 -2.3 -1.7 -3.6 -3.3 -4.4c-4.4 -2.6 -8.8 -5.6 -13.5 -7.4c-20.8 -8.3 -42.3 -13.2 -64.5 -14.2c-4.3 -.2 -8.5 .7 -12.6 1.3c-1.5 .2 -2.6 .8 -3.1 2.6c-.5 2 .7 3 2 3.6c4.9 2.8 9.8 6.1 15 8.2c16.5 6.8 33.8 10.8 51.6 12.9c7.1 1 14.5 1.3 21.8 .1c2.3 -.4 4.8 -.8 6.6 -2.7Zm-232 46.8c1.5 0 3.4 -.1 5.4 -.3c.6 0 1.3 -.2 1.9 -.3c3.5 -1 4.6 -3.8 2.5 -6.5c-2.3 -3 -4.7 -5.9 -7.7 -8c-16.6 -12.1 -35.3 -19.5 -55.7 -22.3c-3.4 -.4 -7.1 -.1 -10.6 .5c-3.9 .9 -4.9 3.6 -2.4 6.9c2.1 2.8 4.6 5.4 7.3 7.3c5.6 3.8 11.3 7.6 17.3 10.5c13.1 6.5 26.8 11.3 42 12.2Zm125.4 242.9c-2.2 1.9 -4.3 1.6 -6.4 1.1c-2.4 -.7 -2.9 -1.8 -2.4 -4.4c.4 -2.1 .8 -4.1 1.3 -6.5c-4.1 .9 -7.1 -.5 -9.8 -2.3c-1.2 -.7 -2.5 -1.8 -3.5 -1.7c-3.4 .5 -7.2 .7 -10.4 2.2c-6.9 2.9 -9.6 10.9 -6.7 18.1c1.3 3.4 3.4 6.2 6.5 8c3 1.6 5.9 3.1 9 3.9c8 2.3 16.3 3.1 24.8 3.1c4.9 0 9.8 -.5 14.9 -2.6c-1.7 -3.3 -3.1 -6.5 -4.8 -9.8c-1.4 -3.1 -3.2 -6.2 -4.4 -9.5c-1.1 -3.2 -1.9 -6.7 -2.9 -10.7c-1.5 2.4 -.3 5 -3.3 6.6c1.2 -8 2.1 -15.1 3.1 -22.8c-2.4 1.6 -4.5 2.9 -6.5 4.4c1.3 3.6 1.3 4.1 -.3 7.2c-.7 1.3 -1.8 2.3 -2.6 3.6c-.5 .8 -1.2 1.4 -1.3 2.3c-.5 2.9 -.9 5.8 -1.4 9.3c2.3 -.2 4.6 .1 7.1 .5Zm-83.5 44.7c-2.2 .6 -3.7 1.1 -6 1.8c1.1 -1.6 1.6 -2.3 2 -2.8c-2 -3.4 -4 -6.8 -6.1 -10.4c-2.3 10.3 -6 19.6 -12.2 28.9c6.5 -.4 12.2 -.2 17.8 -.8c3.6 -.4 7.3 -1.4 10.7 -2.8c8.4 -3.6 12.6 -11.5 11.1 -20.3c-1.4 -8.1 -5.5 -14.5 -12.2 -19.1c-4.1 -2.6 -8.5 -4.2 -13.4 -5.4c-.1 7.2 -1.9 14.4 2.1 20.9c1.2 2 2.3 4 3.6 5.8c.7 1.4 1.3 2.4 2.6 4.2ZM1324.9 752.3c1.3 -4.1 1.3 -8.1 .7 -12.2c-2 -11.9 -3.9 -24 -6.2 -35.9c-1.8 -10 -5.1 -19.5 -8.8 -28.9c-3.6 3.4 -7.2 6.5 -10.7 9.8c4.1 22.8 7.4 46 14.1 68.4c3.6 -.4 7 -.7 10.9 -1.2ZM1630 481.3c.7 .1 1.8 .6 3 .8c4.5 .6 9.1 1.5 13.7 1.6c13.5 .3 26.9 .3 40.5 .3c3.2 0 6.7 -.1 9.9 -.4c2.3 -.2 4.8 -.4 6.6 -2.8c-.7 -2.3 -2.2 -3.8 -4.1 -4.6c-3.3 -1.5 -6.5 -2.9 -10 -3.8c-15.8 -3.4 -32 -4.4 -48.1 -2.4c-4.3 .5 -8.5 1.1 -12.3 1.8c.2 3.3 .5 6.2 .8 9.5Zm-321.4 79.3c-.3 20.8 4.1 39.2 20.9 52.6c4.4 -3.9 8.6 -7.8 13.1 -11.8c-12.3 -14.3 -16.4 -31.1 -15.7 -49.9c-6.1 3.1 -11.9 6 -18.3 9.1Zm434.2 62.6c.9 -4.9 1.7 -9.8 2.5 -14.7c0 -.5 0 -1.2 -.2 -1.7c-1.3 -2.9 -2.7 -5.7 -4.2 -8.6c-9.3 2.1 -17.3 5.5 -23.7 12.2c-1.6 1.8 -3.1 4.1 -4.1 6.4c-1.6 4.2 .5 7.2 4.9 7.3c1.3 0 2.6 .2 3.9 0c6.9 -1.1 13.6 -1.9 20.6 -.9c0 .1 .2 .1 .3 0ZM1726.7 663c.1 -1.1 .1 -2.1 .5 -2.9c1 -3.3 3.2 -4.8 6.5 -4.6c4.2 .3 10 5.7 10.5 10c.1 1.1 -.5 2.2 -1 3.4c-.8 1.6 -1.8 3.1 -3 5c3.1 -.6 4.4 -1.3 5.4 -3.5c1.8 -4.5 1.8 -8.9 -1 -12.9c-2.1 -3.3 -4 -6.6 -5.8 -10c-.5 -1 -.9 -2.1 .8 -2.8c1.3 3.9 2.9 7.9 5.9 10.5c-1 -9.5 -1.8 -19 -3 -29.4c-5.7 4.9 -11.1 9 -16.1 13.7c-8.9 8.2 -8.9 14.7 -.5 23.5c0 -.3 .1 -.3 .8 0ZM1450 669.7c5.7 1.8 10.9 3.4 16.5 5.2c5.2 -5.8 8.5 -13 11.6 -20.5c-4.3 -1.4 -7.9 -2.7 -11.8 -3.6c-.8 -.2 -2.3 .3 -3.1 .9c-6.2 4.6 -10.3 11 -13.2 18Zm275.1 17.5c0 -.7 .1 -1.2 .1 -1.7c-.8 -4.5 4.7 -7.3 8.2 -5.3c1.9 1.1 3.9 2.6 5.9 4c2.4 1.8 2.6 4.3 1.7 6.9c-.4 1.8 -1.3 3.4 -2.1 5.7c3.5 -1 5.3 -2.8 6.1 -5.4c.9 -3.2 -.4 -5.7 -2.5 -8c-5.9 -6.3 -11.7 -12.7 -17.6 -19.2c-.7 -.9 -1 -1.8 -1.8 -3c-5.6 11.4 -4.6 21.2 2 26Zm-234 -35.9c.2 .3 .3 .6 .7 .9c3.9 -.9 8 -1.6 11.9 -2.7c3.9 -1.2 7.2 -3.3 9.9 -6.4c2.3 -2.6 4 -5.6 4 -9.6c-3.3 .3 -6.2 .8 -9.3 .8c-4.9 0 -8.7 1.3 -10.3 6.5c-.5 1.6 -1.8 2.9 -2.8 4.4c-1.6 2 -2.9 4.1 -4.1 6.1Zm-13 -45.9c-6.6 .1 -12.8 .5 -18.8 2.7c-2.1 .9 -3.3 2 -3.3 4.5c0 2.4 -.8 4.9 -1.3 7.3c4.6 .3 14.9 -1.6 18.6 -3.4c.7 -.4 1.3 -.7 1.5 -1.2c1.5 -3.1 3.3 -6.2 3.3 -9.9Zm39 24.8c1.6 -.3 3.4 -.3 5 -.8c4.8 -1.5 5.9 -5.6 2.6 -9.3c-3.9 -4.8 -11.7 -5.1 -16 -.9c-2.7 2.8 -2.4 6.7 .9 9c2.2 1.5 4.9 2.2 7.5 2Zm-38.9 -26.3c1.5 -2.5 1.6 -5.4 2 -8.5c-3.6 -.3 -7 -.6 -10.5 -.8c-1.9 0 -3.9 .2 -5.8 .6c-6.1 1.2 -9.2 6.4 -7.1 12c6.7 -2.8 13.9 -4.1 21.4 -3.3Zm259.7 70c1.2 -1.9 2 -3.7 3.1 -5.2c2 -2.8 2.3 -3.4 .4 -6c-1.7 -2.1 -3.8 -3.8 -5.9 -5.2c-1.6 -1.2 -3.6 -1 -5.1 .4c-1.6 1.5 -2.6 6.7 -1.3 8.4c2.3 3.1 4.8 6.3 8.8 7.6Zm-13.5 34.5c-.3 -1.3 -.3 -1.6 -.5 -2c-.8 -2.4 -.8 -4.9 1.5 -6.5c2.3 -1.8 4.7 -1.1 7 .5c1.8 1.3 3.6 2.5 5.7 4.1c-.5 -2.5 -1.9 -3.8 -3.7 -4.6c-4.1 -1.8 -7.4 -4.9 -10.3 -8.2c-1.5 -1.6 -2.8 -3.2 -4.1 -4.9c-3.9 1.5 -4.9 3 -4.1 7.6c1.2 5.2 3.9 9.6 8.5 14Zm11.9 -11.6c1.2 -2.1 2.5 -3.9 3 -5.9c.3 -1.4 .3 -3.6 -.5 -4.5c-1.8 -2 -4.3 -3.6 -6.7 -4.9c-1.5 -.9 -3.5 -.9 -4.8 .8c-1.3 1.6 -1.4 3.4 -.8 5.2c1.7 4.4 4.9 7.4 9.8 9.3ZM1479.5 651.4c2.3 -4.7 4.4 -9 6.7 -13.7c-7 2 -13.2 4.7 -18.4 10.4c4.1 1.2 7.8 2.3 11.7 3.3Zm11 -45.7c2.7 .8 5 1.3 7 2.1c1.9 .8 2.9 .2 3.6 -1.6q-6.1 -8 -8.5 -8.5c-.7 2.4 -1.3 5.1 -2.1 8ZM1632 660.9c-.3 0 -.5 0 -.8 .1c-1.3 6.6 -2.8 13.1 -4.1 19.5c.2 0 .3 .1 .7 .1c2.4 -3.9 4.9 -7.6 7.3 -11.4c-1.1 -2.8 -2.1 -5.5 -3.1 -8.3Zm100.4 49q3.3 -4.3 -.3 -7.5c-.4 -.4 -.5 -.5 -.8 -.9c-1.5 -1.4 -3 -1.6 -4.6 -.4c-1.5 .9 -1.6 3.2 -.7 5c1.3 2.5 3.6 3.6 6.4 3.8Zm10.9 -29.4c1.2 1.3 2.5 2.8 4.3 4.6c.3 -5.4 .6 -10.2 1 -15.6c-2.8 3.8 -5.6 6.6 -5.3 11Z" class="g1_3"/>
<path d="M1876.9 789.1c-1.8 .8 -3.6 1.8 -5.3 2.6c-27.1 13.9 -47.1 34.9 -60.5 62.7c-4.9 10.1 -6.7 21.1 -7.7 32.2c-.8 8.8 -1.3 17.4 -3.9 25.9c-2.1 6.7 -5.1 12.8 -9.5 18.1c-.5 .5 -.8 1 -1.3 1.5c-.1 .2 -.5 .2 -1 .3c-.5 -1.6 .7 -2.7 1.5 -3.9c5.1 -8.3 8.7 -17.3 10 -27.1c.9 -6.5 1.6 -13 2.3 -19.7c1.9 -17.2 8.6 -32.5 18.4 -46.4c11.8 -16.5 25.8 -30.6 43.1 -40.8c4.4 -2.7 8.8 -5.1 13.9 -5.4Z" class="g1_3"/>
<path d="M1802.1 929.7c1.6 1.1 3.4 1.9 4.9 3.2c9.6 7.9 20.7 12.4 32.7 14.9c9.3 2 18.4 4.7 26.6 10c10.9 7.1 19.9 16.4 27.7 26.9c.3 .3 .3 .8 0 1.6c-1 -1 -1.9 -1.9 -2.9 -2.9c-4.9 -4.9 -9.7 -10 -14.9 -14.7c-10.1 -9.5 -22.2 -14.9 -35.6 -17.8c-6.3 -1.5 -12.7 -3.4 -18.9 -5.7c-7.4 -2.8 -13.6 -7.4 -18.9 -13.1c-.5 -.5 -1 -1.3 -1.5 -1.8c.3 -.1 .5 -.5 .8 -.6Z" class="g1_3"/>
<path d="M1878.2 921.3c.5 1.2 1 2.3 1.1 3.6c2.6 15.1 9.5 28.4 16.8 41.3c4 7.1 8.5 13.8 13.1 20.3c6.7 9.6 12.6 19.8 15.2 31.3c.6 2.8 1 5.8 1.4 8.7c-.3 0 -.6 .2 -.8 .2c-.3 -1 -.8 -2.2 -.9 -3.1c-2.5 -11.8 -7.4 -22.2 -14.3 -31.9C1900.2 978 1890.9 964 1883.7 948.6c-2.9 -6.2 -5.4 -12.7 -6.3 -19.6c-.4 -2.4 -.4 -5 -.5 -7.7c.6 .2 1 0 1.3 0Z" class="g1_3"/>
<path d="M1786.1 904.8c0 .5 .2 1.2 .2 1.7c-.4 4.7 -1 9.4 -1 14c.2 6.9 -2.5 12.1 -7.8 15.9c-.9 .5 -1.5 1.1 -2.3 1.6c0 0 -.2 0 -1 -.2c1.1 -1.4 1.8 -2.7 2.9 -3.7c4.3 -3.6 6.2 -8.2 6.1 -13.9c0 -3.9 .5 -7.8 .8 -11.8c.1 -1.3 .8 -2.6 1.1 -3.9c.5 .3 .8 .3 1 .3Z" class="g1_3"/>
<path d="M1867.7 776.7c-1.4 5.5 -7.2 10.7 -13.8 12.9c5 -3.6 10.1 -7.4 13.8 -12.9Z" class="g1_3"/>
<path d="M1836.6 532c-.4 2.5 -2.2 3.6 -4 4.8c-4.5 2.9 -9.8 4.2 -15 4.9c-16.8 2.1 -33.3 1.1 -49.8 -2.6c-10.4 -2.5 -20.9 -4.8 -31.3 -7.4c-4.6 -1.1 -9.2 -2.8 -13.6 -4.7c-2.7 -1.3 -5.5 -3.3 -7.6 -5.6c-4.9 -5 -4.6 -11.7 .8 -16.5c2.6 -2.1 5.8 -3.9 9 -4.9c9.4 -2.9 19.1 -1.9 28.7 -.6c18.1 2.6 35.2 8.2 52.9 13.1c8.1 2.2 16.5 4 24.6 6.3c2 .5 3.8 1.5 5.7 2.3c0 .3 -.1 .5 -.1 .8c-.7 0 -1.5 .4 -2.1 0c-14.2 -3.7 -28.5 -7.5 -42.7 -11.1c-8.3 -2.1 -16.6 -4.4 -25.1 -6c-8 -1.7 -16 -2.6 -24 -3.5c-5.9 -.6 -11.9 -.1 -17.8 1.5c-3.1 .8 -6 2.1 -8.3 4.6c-3.4 3.4 -3.9 7.8 -.7 11.6c1.8 2.1 4.3 3.7 6.6 5c5.5 3.1 11.6 4.5 17.8 5.8c12.7 2.7 25.3 5.7 38 8c13.5 2.4 27.1 2.6 40.8 .5c6.2 -1.2 11.6 -3.5 17.2 -6.3Z" class="g1_3"/>
<path d="M1757.9 622.8c-1.7 0 -3.1 0 -4.8 0c-2.7 -.1 -3.9 -1.3 -3.9 -3.9c0 -5.4 1.5 -10.4 4.9 -14.5c4.9 -5.9 12.4 -4.4 14.4 3.1c.8 3.3 .8 6.8 .3 10.3c-.3 3.2 -2.8 4.9 -6.2 5c-1.5 0 -3.1 0 -4.7 0Zm-6.7 -1.9c1.8 0 3.2 .1 4.7 0c2.1 -.2 4.2 -.5 6.2 -.7c2.9 -.3 4.4 -1.3 4.9 -4.1c.7 -3.2 .5 -6.5 -1 -9.4c-1.8 -4.1 -6.8 -5.3 -9.8 -1.7c-3.2 4.3 -6.2 9.2 -5 15.9Z" class="g1_3"/>
<path d="M1788.9 629.4c-3.8 2.1 -7.4 4.2 -11.1 6.3c1.4 -3.7 7 -6.8 11.1 -6.3Z" class="g1_3"/>
<path d="M1799.7 654.5c-3.5 1.8 -6.9 3.6 -10.3 5.4c.8 -2.9 4.9 -5.2 10.3 -5.4Z" class="g1_3"/>
<path d="M1541.4 442.6c-4.9 -.5 -10 -1.2 -14.9 -1.3c-14.2 -.5 -27.9 1.4 -41.4 6c-3 1 -6.2 1.8 -7.7 5.4c1.3 2.3 3.4 2.8 5.7 3.3c6.5 1.8 13.4 2.1 20.1 1.8c9.1 -.5 18.1 -1.7 27.3 -2.5c.6 0 1.3 0 2.1 .5c-.7 .3 -1.3 1 -2.1 1.1c-10.8 3.3 -21.9 4.1 -33 3.6c-5.1 -.1 -10 -1.1 -14.9 -1.9c-1.9 -.4 -3.7 -1.3 -5.4 -2.5c-2.7 -1.8 -3.1 -4.6 -.8 -6.8c1.7 -1.5 3.6 -2.8 5.6 -3.8c5.8 -2.8 12.4 -4.1 18.7 -4.9c10.7 -1.3 21.4 -1.8 32.2 -.8c2.9 .3 5.9 1 8.7 1.6c0 .5 -.2 .8 -.2 1.2Z" class="g1_3"/>
<path d="M1450.6 687c3 4.9 5.4 9.3 10.3 11c5.4 1.9 9.2 -2 13.7 -4.1c-1.6 3.9 -5.9 6.7 -9.9 6.8c-5.6 .4 -13.6 -6.5 -14.1 -13.7Z" class="g1_3"/>
<path d="M1746.1 730.8c-4.6 2.9 -9.9 1.9 -14.4 -2.5c3 1 5.1 2 7.4 2.3c2.3 .5 4.7 .2 7 .2Z" class="g1_3"/>
<path d="M1332.1 595.6c0 3.1 -2.4 5.5 -5.5 5.5c-3.3 0 -5.6 -2.4 -5.6 -5.9c.2 -3.1 2.6 -5.5 5.7 -5.3c3.1 0 5.4 2.4 5.4 5.7Zm-5.4 2.9c1.8 0 3.3 -1.5 3.3 -3.3c0 -1.9 -1.6 -3.5 -3.6 -3.4c-1.8 0 -3.4 2 -3.3 3.8c0 1.6 1.8 2.9 3.6 2.9Z" class="g1_3"/>
<path d="M1326.1 581c-.2 3.3 -2.5 5.4 -5.7 5.4c-3.1 0 -5.8 -2.6 -5.6 -5.5c0 -3 3.1 -6.1 6 -5.9c3 .2 5.4 2.8 5.3 6Zm-1.8 0c0 -2.2 -1.8 -3.9 -4.1 -3.9c-2.3 0 -3.8 1.7 -3.8 3.8c0 2.1 2 4.2 4 4.2c2.2 0 4 -1.8 3.9 -4.1Z" class="g1_3"/>
<path d="M1313.5 566.2c0 -2.8 2.3 -5.1 5.1 -5.2c2.9 -.2 5.2 2.2 5.2 5.3c0 3 -2.1 5.3 -4.9 5.3c-2.8 .1 -5.4 -2.5 -5.4 -5.4Zm5.1 -3.5c-1.7 0 -3.3 1.8 -3.3 3.5c0 1.8 1.8 3.6 3.6 3.6c1.8 -.2 3.1 -1.7 3.1 -3.5c0 -1.9 -1.6 -3.6 -3.4 -3.6Z" class="g1_3"/>
</svg>