<?xml version="1.0" encoding="UTF-8" standalone="no"?>
<!DOCTYPE svg PUBLIC "-//W3C//DTD SVG 1.1//EN"
"http://www.w3.org/Graphics/SVG/1.1/DTD/svg11.dtd">
<svg viewBox="0 0 2200 1237" version="1.1" xmlns="http://www.w3.org/2000/svg" xmlns:xlink="http://www.w3.org/1999/xlink">
<defs>
<clipPath id="c0_5"><path d="M-.2 1237.8V-.2H2200.3v1238Z"/></clipPath>
<clipPath id="c1_5"><path d="M2.3 181.5V65.9H87c24.9 .4 46.2 16.6 54.3 38.6c0 .1 0 .2 .1 .4c2 5.8 3.1 12.2 3.1 18.8c0 6.6 -1.3 13.4 -3.3 19.3C133.3 165.2 112 181.2 87 181.5Z"/></clipPath>
<style type="text/css"><![CDATA[
.g0_5{
fill: #FFF;
}
.g1_5{
fill: #000;
}
.g2_5{
fill: none;
stroke: #000;
stroke-width: 4.583;
stroke-miterlimit: 10;
}
.g3_5{
fill: #333;
}
]]></style>
</defs>
<g clip-path="url(#c0_5)">
<path d="M0 0H2200V1237.5H0V0Z" class="g0_5"/>
<path d="M0 0H2200V1237.5H0V0Z" class="g0_5"/>
<image preserveAspectRatio="none" x="0" y="-480" width="2200" height="2199" xlink:href="img/1.jpg"/>
</g>
<path clip-path="url(#c1_5)" d="M2.3 181.5V65.9H144.5V181.5H2.3Z" class="g1_5"/>
<path clip-path="url(#c0_5)" d="M195 183.8H2202.3" class="g2_5"/>
<path d="M229.4 303.4H1970.5v781.9H229.4V303.4Z" class="g0_5"/>
<path fill-rule="evenodd" d="M580.3 554.7c-.9 -.4 -1.7 -.8 -2.6 -1.2l-1.9 -1c-1.4 -.7 -2.8 -1.4 -4.2 -2.2l-.7 -.4c-1.2 -.7 -2.4 -1.3 -3.6 -2c-.4 -.3 -.9 -.6 -1.3 -.8c-1.1 -.7 -2.2 -1.4 -3.2 -2.1l-1 -.6c-1.3 -.9 -2.6 -1.9 -3.8 -2.8c-.3 -.3 -.6 -.5 -.9 -.7c-1 -.8 -1.9 -1.6 -2.9 -2.5c-.3 -.3 -.6 -.6 -1 -.9c-1.1 -1.1 -2.2 -2.3 -3.3 -3.5h-2.3c-2.1 -4.4 -3.6 -9.9 -4.5 -15.9c20.6 2.3 39.8 -.7 46.3 -17.1c-22.2 -5.9 1.1 -46.7 -18.9 -90.9C564 395.8 545.6 372.2 527.1 377.9c2.5 -2.4 5.2 -4.2 8.3 -5.5c-3.5 .2 -9.2 3.3 -13 6.5c-4.3 -2.6 -11.5 -5 -15.4 -4.3c2.8 .5 5.6 1.5 8.1 2.9c-18 -4.1 -35.7 18.6 -42 32.6c-2.9 6.4 -5 13.1 -6.4 20c-4.9 14.8 -7.6 35.3 -4 46c-.3 -7 .2 -13.9 1.5 -20.8c-.1 24 4.2 42 -9.9 45.7c6.7 15.1 26.2 18.7 46.1 17c-.9 6 -2.5 11.5 -4.8 16h-2.5c-1 1.2 -2.1 2.3 -3.3 3.4c-.3 .4 -.6 .7 -1 1c-.9 .8 -1.8 1.6 -2.8 2.4c-.3 .3 -.6 .5 -.9 .7c-1.2 1 -2.5 2 -3.8 2.9c-.3 .2 -.6 .4 -.9 .6c-1.1 .7 -2.2 1.4 -3.3 2c-.4 .3 -.8 .6 -1.3 .8c-1.1 .7 -2.3 1.4 -3.5 2l-.8 .5c-1.3 .7 -2.7 1.4 -4.2 2.2c-.6 .3 -1.2 .6 -1.8 .9c-.9 .4 -1.7 .9 -2.6 1.3c-27 13.4 -55.1 24.5 -41.6 71.9H622.4c13.4 -47.4 -14.9 -58.5 -42.1 -71.9Z" class="g1_5"/>
<path d="M882.8 465.8c0 .5 0 1 -.1 1.4c-.1 .5 -.3 1 -.4 1.4c-.2 .5 -.5 .9 -.7 1.3c-.3 .4 -.6 .8 -1 1.1c-.3 .4 -.7 .7 -1.1 1c-.4 .2 -.8 .5 -1.3 .7c-.4 .1 -.9 .3 -1.4 .4c-.5 .1 -.9 .1 -1.4 .1c-.5 0 -1 0 -1.5 -.1c-.5 -.1 -.9 -.3 -1.4 -.4c-.4 -.2 -.9 -.5 -1.3 -.7c-.4 -.3 -.8 -.6 -1.1 -1c-.3 -.3 -.7 -.7 -.9 -1.1c-.3 -.4 -.5 -.8 -.7 -1.3c-.2 -.4 -.3 -.9 -.4 -1.4c-.1 -.4 -.2 -.9 -.2 -1.4c0 -.5 .1 -1 .2 -1.5c.1 -.5 .2 -.9 .4 -1.4c.2 -.4 .4 -.9 .7 -1.3c.2 -.4 .6 -.7 .9 -1.1c.3 -.3 .7 -.6 1.1 -.9c.4 -.3 .9 -.5 1.3 -.7c.5 -.2 .9 -.3 1.4 -.4c.5 -.1 1 -.2 1.5 -.2c.5 0 .9 .1 1.4 .2c.5 .1 1 .2 1.4 .4c.5 .2 .9 .4 1.3 .7c.4 .3 .8 .6 1.1 .9c.4 .4 .7 .7 1 1.1c.2 .4 .5 .9 .7 1.3c.1 .5 .3 .9 .4 1.4c.1 .5 .1 1 .1 1.5Z" class="g3_5"/>
<path d="M882.8 523.1c0 .5 0 .9 -.1 1.4c-.1 .5 -.3 1 -.4 1.4c-.2 .5 -.5 .9 -.7 1.3c-.3 .4 -.6 .8 -1 1.1c-.3 .4 -.7 .7 -1.1 1c-.4 .2 -.8 .5 -1.3 .7c-.4 .1 -.9 .3 -1.4 .4c-.5 .1 -.9 .1 -1.4 .1c-.5 0 -1 0 -1.5 -.1c-.5 -.1 -.9 -.3 -1.4 -.4c-.4 -.2 -.9 -.5 -1.3 -.7c-.4 -.3 -.8 -.6 -1.1 -1c-.3 -.3 -.7 -.7 -.9 -1.1c-.3 -.4 -.5 -.8 -.7 -1.3c-.2 -.4 -.3 -.9 -.4 -1.4c-.1 -.5 -.2 -.9 -.2 -1.4c0 -.5 .1 -1 .2 -1.5c.1 -.5 .2 -.9 .4 -1.4c.2 -.4 .4 -.9 .7 -1.3c.2 -.4 .6 -.7 .9 -1.1c.3 -.3 .7 -.6 1.1 -.9c.4 -.3 .9 -.5 1.3 -.7c.5 -.2 .9 -.3 1.4 -.4c.5 -.1 1 -.2 1.5 -.2c.5 0 .9 .1 1.4 .2c.5 .1 1 .2 1.4 .4c.5 .2 .9 .4 1.3 .7c.4 .3 .8 .6 1.1 .9c.4 .4 .7 .7 1 1.1c.2 .4 .5 .9 .7 1.3c.1 .5 .3 .9 .4 1.4c.1 .5 .1 1 .1 1.5Z" class="g3_5"/>
<path d="M882.8 637.7c0 .4 0 .9 -.1 1.4c-.1 .5 -.3 1 -.4 1.4c-.2 .5 -.5 .9 -.7 1.3c-.3 .4 -.6 .8 -1 1.1c-.3 .4 -.7 .7 -1.1 .9c-.4 .3 -.8 .5 -1.3 .7c-.4 .2 -.9 .4 -1.4 .5c-.5 .1 -.9 .1 -1.4 .1c-.5 0 -1 0 -1.5 -.1c-.5 -.1 -.9 -.3 -1.4 -.5c-.4 -.2 -.9 -.4 -1.3 -.7c-.4 -.2 -.8 -.5 -1.1 -.9c-.3 -.3 -.7 -.7 -.9 -1.1c-.3 -.4 -.5 -.8 -.7 -1.3c-.2 -.4 -.3 -.9 -.4 -1.4c-.1 -.5 -.2 -1 -.2 -1.4c0 -.5 .1 -1 .2 -1.5c.1 -.5 .2 -.9 .4 -1.4c.2 -.4 .4 -.9 .7 -1.3c.2 -.4 .6 -.8 .9 -1.1c.3 -.4 .7 -.7 1.1 -.9c.4 -.3 .9 -.5 1.3 -.7c.5 -.2 .9 -.4 1.4 -.4c.5 -.1 1 -.2 1.5 -.2c.5 0 .9 .1 1.4 .2c.5 0 1 .2 1.4 .4c.5 .2 .9 .4 1.3 .7c.4 .2 .8 .5 1.1 .9c.4 .3 .7 .7 1 1.1c.2 .4 .5 .9 .7 1.3c.1 .5 .3 .9 .4 1.4c.1 .5 .1 1 .1 1.5Z" class="g3_5"/>
<path d="M882.8 694.9c0 .5 0 1 -.1 1.5c-.1 .5 -.3 .9 -.4 1.4c-.2 .4 -.5 .9 -.7 1.3c-.3 .4 -.6 .8 -1 1.1c-.3 .4 -.7 .7 -1.1 .9c-.4 .3 -.8 .5 -1.3 .7c-.4 .2 -.9 .4 -1.4 .5c-.5 0 -.9 .1 -1.4 .1c-.5 0 -1 -.1 -1.5 -.1c-.5 -.1 -.9 -.3 -1.4 -.5c-.4 -.2 -.9 -.4 -1.3 -.7c-.4 -.2 -.8 -.5 -1.1 -.9c-.3 -.3 -.7 -.7 -.9 -1.1c-.3 -.4 -.5 -.9 -.7 -1.3c-.2 -.5 -.3 -.9 -.4 -1.4c-.1 -.5 -.2 -1 -.2 -1.5c0 -.4 .1 -.9 .2 -1.4c.1 -.5 .2 -1 .4 -1.4c.2 -.5 .4 -.9 .7 -1.3c.2 -.4 .6 -.8 .9 -1.1c.3 -.4 .7 -.7 1.1 -.9c.4 -.3 .9 -.5 1.3 -.7c.5 -.2 .9 -.4 1.4 -.5c.5 -.1 1 -.1 1.5 -.1c.5 0 .9 0 1.4 .1c.5 .1 1 .3 1.4 .5c.5 .2 .9 .4 1.3 .7c.4 .2 .8 .5 1.1 .9c.4 .3 .7 .7 1 1.1c.2 .4 .5 .8 .7 1.3c.1 .4 .3 .9 .4 1.4c.1 .5 .1 1 .1 1.4Z" class="g3_5"/>
<path d="M882.8 752.2c0 .5 0 1 -.1 1.5c-.1 .5 -.3 .9 -.4 1.4c-.2 .4 -.5 .9 -.7 1.3c-.3 .4 -.6 .8 -1 1.1c-.3 .4 -.7 .7 -1.1 .9c-.4 .3 -.8 .5 -1.3 .7c-.4 .2 -.9 .3 -1.4 .4c-.5 .1 -.9 .2 -1.4 .2c-.5 0 -1 -.1 -1.5 -.2c-.5 -.1 -.9 -.2 -1.4 -.4c-.4 -.2 -.9 -.4 -1.3 -.7c-.4 -.2 -.8 -.5 -1.1 -.9c-.3 -.3 -.7 -.7 -.9 -1.1c-.3 -.4 -.5 -.9 -.7 -1.3c-.2 -.5 -.3 -.9 -.4 -1.4c-.1 -.5 -.2 -1 -.2 -1.5c0 -.5 .1 -.9 .2 -1.4c.1 -.5 .2 -1 .4 -1.4c.2 -.5 .4 -.9 .7 -1.3c.2 -.4 .6 -.8 .9 -1.1c.3 -.4 .7 -.7 1.1 -1c.4 -.2 .9 -.5 1.3 -.6c.5 -.2 .9 -.4 1.4 -.5c.5 -.1 1 -.1 1.5 -.1c.5 0 .9 0 1.4 .1c.5 .1 1 .3 1.4 .5c.5 .1 .9 .4 1.3 .6c.4 .3 .8 .6 1.1 1c.4 .3 .7 .7 1 1.1c.2 .4 .5 .8 .7 1.3c.1 .4 .3 .9 .4 1.4c.1 .5 .1 .9 .1 1.4Z" class="g3_5"/>
<path d="M882.8 809.5c0 .5 0 1 -.1 1.5c-.1 .5 -.3 .9 -.4 1.4c-.2 .4 -.5 .9 -.7 1.3c-.3 .4 -.6 .8 -1 1.1c-.3 .3 -.7 .7 -1.1 .9c-.4 .3 -.8 .5 -1.3 .7c-.4 .2 -.9 .3 -1.4 .4c-.5 .1 -.9 .2 -1.4 .2c-.5 0 -1 -.1 -1.5 -.2c-.5 -.1 -.9 -.2 -1.4 -.4c-.4 -.2 -.9 -.4 -1.3 -.7c-.4 -.2 -.8 -.6 -1.1 -.9c-.3 -.3 -.7 -.7 -.9 -1.1c-.3 -.4 -.5 -.9 -.7 -1.3c-.2 -.5 -.3 -.9 -.4 -1.4c-.1 -.5 -.2 -1 -.2 -1.5c0 -.5 .1 -.9 .2 -1.4c.1 -.5 .2 -1 .4 -1.4c.2 -.5 .4 -.9 .7 -1.3c.2 -.4 .6 -.8 .9 -1.1c.3 -.4 .7 -.7 1.1 -1c.4 -.2 .9 -.5 1.3 -.7c.5 -.1 .9 -.3 1.4 -.4c.5 -.1 1 -.1 1.5 -.1c.5 0 .9 0 1.4 .1c.5 .1 1 .3 1.4 .4c.5 .2 .9 .5 1.3 .7c.4 .3 .8 .6 1.1 1c.4 .3 .7 .7 1 1.1c.2 .4 .5 .8 .7 1.3c.1 .4 .3 .9 .4 1.4c.1 .5 .1 .9 .1 1.4Z" class="g3_5"/>
</svg>