<?xml version="1.0" encoding="UTF-8" standalone="no"?>
<!DOCTYPE svg PUBLIC "-//W3C//DTD SVG 1.1//EN"
"http://www.w3.org/Graphics/SVG/1.1/DTD/svg11.dtd">
<svg viewBox="0 0 2200 1237" version="1.1" xmlns="http://www.w3.org/2000/svg" xmlns:xlink="http://www.w3.org/1999/xlink">
<defs>
<clipPath id="c0_6"><path d="M-.2 1237.8V-.2H2200.3v1238Z"/></clipPath>
<clipPath id="c1_6"><path d="M0 181.5V65.9H84.8c24.8 .4 46.1 16.6 54.2 38.6c0 .1 0 .2 .1 .4c2 5.8 3.2 12.2 3.2 18.8c0 6.6 -1.4 13.4 -3.4 19.3c-7.9 22.2 -29.1 38.2 -54.2 38.5Z"/></clipPath>
<clipPath id="c2_6"><path d="M696.2 679.1V235.3h807.3V679.1Z"/></clipPath>
<clipPath id="c3_6"><path d="M216.2 1170.2V728h807.6v442.2Z"/></clipPath>
<clipPath id="c4_6"><path d="M216.2 1169.8V728h807.3v441.8Z"/></clipPath>
<clipPath id="c5_6"><path d="M1176.2 1170.2V728h807.6v442.2Z"/></clipPath>
<clipPath id="c6_6"><path d="M1176.2 1169.8V728h807.3v441.8Z"/></clipPath>
<style type="text/css"><![CDATA[
.g0_6{
fill: #FFF;
}
.g1_6{
fill: #000;
}
.g2_6{
fill: none;
stroke: #000;
stroke-width: 4.583;
stroke-miterlimit: 10;
}
.g3_6{
fill: none;
stroke: #333;
stroke-width: 9.166;
stroke-miterlimit: 10;
}
.g4_6{
fill: #333;
}
.g5_6{
fill: none;
stroke: #A6A6A6;
stroke-width: 4.583;
stroke-miterlimit: 10;
}
.g6_6{
fill: #A6A6A6;
}
.g7_6{
fill: none;
stroke: #A6A6A6;
stroke-width: 3.247;
stroke-miterlimit: 10;
}
.g8_6{
fill: none;
stroke: #A6A6A6;
stroke-width: 3.165;
stroke-miterlimit: 10;
}
]]></style>
</defs>
<g clip-path="url(#c0_6)">
<path d="M0 0H2200V1237.5H0V0Z" class="g0_6"/>
<path d="M0 0H2200V1237.5H0V0Z" class="g0_6"/>
<image preserveAspectRatio="none" x="0" y="-480" width="2200" height="2199" xlink:href="img/1.jpg"/>
</g>
<path clip-path="url(#c1_6)" d="M0 181.5V65.9H142.2V181.5H0Z" class="g1_6"/>
<path clip-path="url(#c0_6)" d="M192.7 183.8H2200" class="g2_6"/>
<path d="M696.5 235.7h806.7V678.8H696.5V235.7Z" class="g0_6"/>
<path clip-path="url(#c2_6)" d="M696.5 235.7h807V678.8h-807V235.7Z" class="g3_6"/>
<path d="M738.9 386.5c0 .4 0 .8 -.1 1.2c-.1 .4 -.2 .8 -.4 1.2c-.1 .4 -.3 .8 -.6 1.2c-.2 .3 -.5 .6 -.8 .9c-.3 .3 -.6 .6 -1 .8c-.3 .3 -.7 .5 -1.1 .6c-.4 .2 -.8 .3 -1.2 .4c-.4 .1 -.8 .1 -1.3 .1c-.4 0 -.8 0 -1.2 -.1c-.4 -.1 -.9 -.2 -1.2 -.4c-.4 -.1 -.8 -.3 -1.2 -.6c-.3 -.2 -.6 -.5 -.9 -.8c-.3 -.3 -.6 -.6 -.9 -.9c-.2 -.4 -.4 -.8 -.6 -1.2c-.1 -.4 -.2 -.8 -.3 -1.2c-.1 -.4 -.1 -.8 -.1 -1.2c0 -.5 0 -.9 .1 -1.3c.1 -.4 .2 -.8 .3 -1.2c.2 -.4 .4 -.8 .6 -1.1c.3 -.4 .6 -.7 .9 -1c.3 -.3 .6 -.6 .9 -.8c.4 -.3 .8 -.5 1.2 -.6c.3 -.2 .8 -.3 1.2 -.4c.4 -.1 .8 -.1 1.2 -.1c.5 0 .9 0 1.3 .1c.4 .1 .8 .2 1.2 .4c.4 .1 .8 .3 1.1 .6c.4 .2 .7 .5 1 .8c.3 .3 .6 .6 .8 1c.3 .3 .5 .7 .6 1.1c.2 .4 .3 .8 .4 1.2c.1 .4 .1 .8 .1 1.3Z" class="g4_6"/>
<path d="M738.9 438.3c0 .4 0 .8 -.1 1.2c-.1 .4 -.2 .9 -.4 1.2c-.1 .4 -.3 .8 -.6 1.2c-.2 .3 -.5 .6 -.8 .9c-.3 .3 -.6 .6 -1 .9c-.3 .2 -.7 .4 -1.1 .6c-.4 .1 -.8 .2 -1.2 .3c-.4 .1 -.8 .1 -1.3 .1c-.4 0 -.8 0 -1.2 -.1c-.4 -.1 -.9 -.2 -1.2 -.3c-.4 -.2 -.8 -.4 -1.2 -.6c-.3 -.3 -.6 -.6 -.9 -.9c-.3 -.3 -.6 -.6 -.9 -.9c-.2 -.4 -.4 -.8 -.6 -1.2c-.1 -.3 -.2 -.8 -.3 -1.2c-.1 -.4 -.1 -.8 -.1 -1.2c0 -.5 0 -.9 .1 -1.3c.1 -.4 .2 -.8 .3 -1.2c.2 -.4 .4 -.8 .6 -1.1c.3 -.4 .6 -.7 .9 -1c.3 -.3 .6 -.6 .9 -.8c.4 -.3 .8 -.5 1.2 -.6c.3 -.2 .8 -.3 1.2 -.4c.4 -.1 .8 -.1 1.2 -.1c.5 0 .9 0 1.3 .1c.4 .1 .8 .2 1.2 .4c.4 .1 .8 .3 1.1 .6c.4 .2 .7 .5 1 .8c.3 .3 .6 .6 .8 1c.3 .3 .5 .7 .6 1.1c.2 .4 .3 .8 .4 1.2c.1 .4 .1 .8 .1 1.3Z" class="g4_6"/>
<path d="M738.9 541.9c0 .4 0 .9 -.1 1.3c-.1 .4 -.2 .8 -.4 1.2c-.1 .4 -.3 .7 -.6 1.1c-.2 .4 -.5 .7 -.8 1c-.3 .3 -.6 .6 -1 .8c-.3 .2 -.7 .4 -1.1 .6c-.4 .2 -.8 .3 -1.2 .4c-.4 0 -.8 .1 -1.3 .1c-.4 0 -.8 -.1 -1.2 -.1c-.4 -.1 -.9 -.2 -1.2 -.4c-.4 -.2 -.8 -.4 -1.2 -.6c-.3 -.2 -.6 -.5 -.9 -.8c-.3 -.3 -.6 -.6 -.9 -1c-.2 -.4 -.4 -.7 -.6 -1.1c-.1 -.4 -.2 -.8 -.3 -1.2c-.1 -.4 -.1 -.9 -.1 -1.3c0 -.4 0 -.8 .1 -1.3c.1 -.4 .2 -.8 .3 -1.2c.2 -.4 .4 -.7 .6 -1.1c.3 -.3 .6 -.7 .9 -1c.3 -.3 .6 -.5 .9 -.8c.4 -.2 .8 -.4 1.2 -.6c.3 -.1 .8 -.3 1.2 -.3c.4 -.1 .8 -.2 1.2 -.2c.5 0 .9 .1 1.3 .2c.4 0 .8 .2 1.2 .3c.4 .2 .8 .4 1.1 .6c.4 .3 .7 .5 1 .8c.3 .3 .6 .7 .8 1c.3 .4 .5 .7 .6 1.1c.2 .4 .3 .8 .4 1.2c.1 .5 .1 .9 .1 1.3Z" class="g4_6"/>
<path d="M741.3 329.6h710.1" class="g5_6"/>
<path clip-path="url(#c3_6)" d="M216.5 728.3h807.3v441.6H216.5V728.3Z" class="g0_6"/>
<path clip-path="url(#c4_6)" d="M216.5 728.3h806.9v441.6H216.5V728.3Z" class="g3_6"/>
<path d="M260 880.7c0 .4 0 .8 -.1 1.3c-.1 .4 -.2 .8 -.4 1.1c-.1 .4 -.3 .8 -.5 1.1c-.3 .4 -.5 .7 -.8 1c-.3 .3 -.6 .5 -1 .8c-.3 .2 -.7 .4 -1.1 .5c-.4 .2 -.7 .3 -1.2 .4c-.4 .1 -.8 .1 -1.2 .1c-.4 0 -.8 0 -1.2 -.1c-.4 -.1 -.8 -.2 -1.2 -.4c-.4 -.1 -.7 -.3 -1.1 -.5c-.3 -.3 -.6 -.5 -.9 -.8c-.3 -.3 -.6 -.6 -.8 -1c-.3 -.3 -.4 -.7 -.6 -1.1c-.2 -.3 -.3 -.7 -.4 -1.1c0 -.5 -.1 -.9 -.1 -1.3c0 -.4 .1 -.8 .1 -1.2c.1 -.4 .2 -.8 .4 -1.2c.2 -.4 .3 -.7 .6 -1.1c.2 -.3 .5 -.6 .8 -.9c.3 -.3 .6 -.6 .9 -.8c.4 -.2 .7 -.4 1.1 -.6c.4 -.2 .8 -.3 1.2 -.4c.4 0 .8 -.1 1.2 -.1c.4 0 .8 .1 1.2 .1c.5 .1 .8 .2 1.2 .4c.4 .2 .8 .4 1.1 .6c.4 .2 .7 .5 1 .8c.3 .3 .5 .6 .8 .9c.2 .4 .4 .7 .5 1.1c.2 .4 .3 .8 .4 1.2c.1 .4 .1 .8 .1 1.2Z" class="g4_6"/>
<path d="M260 983.8c0 .5 0 .9 -.1 1.3c-.1 .4 -.2 .8 -.4 1.2c-.1 .3 -.3 .7 -.5 1c-.3 .4 -.5 .7 -.8 1c-.3 .3 -.6 .6 -1 .8c-.3 .2 -.7 .4 -1.1 .6c-.4 .1 -.7 .2 -1.2 .3c-.4 .1 -.8 .1 -1.2 .1c-.4 0 -.8 0 -1.2 -.1c-.4 -.1 -.8 -.2 -1.2 -.3c-.4 -.2 -.7 -.4 -1.1 -.6c-.3 -.2 -.6 -.5 -.9 -.8c-.3 -.3 -.6 -.6 -.8 -1c-.3 -.3 -.4 -.7 -.6 -1c-.2 -.4 -.3 -.8 -.4 -1.2c0 -.4 -.1 -.8 -.1 -1.3c0 -.4 .1 -.8 .1 -1.2c.1 -.4 .2 -.8 .4 -1.2c.2 -.3 .3 -.7 .6 -1.1c.2 -.3 .5 -.6 .8 -.9c.3 -.3 .6 -.6 .9 -.8c.4 -.2 .7 -.4 1.1 -.6c.4 -.1 .8 -.3 1.2 -.3c.4 -.1 .8 -.2 1.2 -.2c.4 0 .8 .1 1.2 .2c.5 0 .8 .2 1.2 .3c.4 .2 .8 .4 1.1 .6c.4 .2 .7 .5 1 .8c.3 .3 .5 .6 .8 .9c.2 .4 .4 .8 .5 1.1c.2 .4 .3 .8 .4 1.2c.1 .4 .1 .8 .1 1.2Z" class="g4_6"/>
<path d="M260 1087c0 .4 0 .8 -.1 1.2c-.1 .4 -.2 .8 -.4 1.2c-.1 .4 -.3 .7 -.5 1.1c-.3 .3 -.5 .6 -.8 .9c-.3 .3 -.6 .6 -1 .8c-.3 .2 -.7 .4 -1.1 .6c-.4 .2 -.7 .3 -1.2 .4c-.4 0 -.8 .1 -1.2 .1c-.4 0 -.8 -.1 -1.2 -.1c-.4 -.1 -.8 -.2 -1.2 -.4c-.4 -.2 -.7 -.4 -1.1 -.6c-.3 -.2 -.6 -.5 -.9 -.8c-.3 -.3 -.6 -.6 -.8 -.9c-.3 -.4 -.4 -.7 -.6 -1.1c-.2 -.4 -.3 -.8 -.4 -1.2c0 -.4 -.1 -.8 -.1 -1.2c0 -.4 .1 -.9 .1 -1.3c.1 -.4 .2 -.8 .4 -1.1c.2 -.4 .3 -.8 .6 -1.1c.2 -.4 .5 -.7 .8 -1c.3 -.3 .6 -.5 .9 -.8c.4 -.2 .7 -.4 1.1 -.6c.4 -.1 .8 -.2 1.2 -.3c.4 -.1 .8 -.1 1.2 -.1c.4 0 .8 0 1.2 .1c.5 .1 .8 .2 1.2 .3c.4 .2 .8 .4 1.1 .6c.4 .3 .7 .5 1 .8c.3 .3 .5 .6 .8 1c.2 .3 .4 .7 .5 1.1c.2 .3 .3 .7 .4 1.1c.1 .4 .1 .9 .1 1.3Z" class="g4_6"/>
<path d="M261.2 822.3H971.3" class="g5_6"/>
<path clip-path="url(#c5_6)" d="M1176.6 728.3h807.3v441.6H1176.6V728.3Z" class="g0_6"/>
<path clip-path="url(#c6_6)" d="M1176.6 728.3h806.9v441.6H1176.6V728.3Z" class="g3_6"/>
<path d="M1221.3 822.3h710.1" class="g5_6"/>
<path d="M1219 879.1c0 .4 -.1 .9 -.2 1.3c-.1 .4 -.2 .8 -.3 1.2c-.2 .4 -.4 .8 -.6 1.1c-.3 .4 -.5 .7 -.8 1c-.3 .3 -.7 .6 -1 .8c-.4 .2 -.8 .4 -1.1 .6c-.4 .2 -.8 .3 -1.3 .4c-.4 0 -.8 .1 -1.2 .1c-.5 0 -.9 -.1 -1.3 -.1c-.4 -.1 -.8 -.2 -1.2 -.4c-.4 -.2 -.8 -.4 -1.1 -.6c-.4 -.2 -.7 -.5 -1 -.8c-.3 -.3 -.6 -.6 -.8 -1c-.2 -.3 -.4 -.7 -.6 -1.1c-.2 -.4 -.3 -.8 -.4 -1.2c-.1 -.4 -.1 -.9 -.1 -1.3c0 -.4 0 -.8 .1 -1.2c.1 -.5 .2 -.9 .4 -1.3c.2 -.4 .4 -.7 .6 -1.1c.2 -.3 .5 -.7 .8 -1c.3 -.3 .6 -.5 1 -.8c.3 -.2 .7 -.4 1.1 -.6c.4 -.1 .8 -.3 1.2 -.3c.4 -.1 .8 -.2 1.3 -.2c.4 0 .8 .1 1.2 .2c.5 0 .9 .2 1.3 .3c.3 .2 .7 .4 1.1 .6c.3 .3 .7 .5 1 .8c.3 .3 .5 .7 .8 1c.2 .4 .4 .7 .6 1.1c.1 .4 .2 .8 .3 1.3c.1 .4 .2 .8 .2 1.2Z" class="g4_6"/>
<path d="M1219 930.9c0 .5 -.1 .9 -.2 1.3c-.1 .4 -.2 .8 -.3 1.2c-.2 .4 -.4 .8 -.6 1.1c-.3 .4 -.5 .7 -.8 1c-.3 .3 -.7 .6 -1 .8c-.4 .3 -.8 .5 -1.1 .6c-.4 .2 -.8 .3 -1.3 .4c-.4 .1 -.8 .1 -1.2 .1c-.5 0 -.9 0 -1.3 -.1c-.4 -.1 -.8 -.2 -1.2 -.4c-.4 -.1 -.8 -.3 -1.1 -.6c-.4 -.2 -.7 -.5 -1 -.8c-.3 -.3 -.6 -.6 -.8 -1c-.2 -.3 -.4 -.7 -.6 -1.1c-.2 -.4 -.3 -.8 -.4 -1.2c-.1 -.4 -.1 -.8 -.1 -1.3c0 -.4 0 -.8 .1 -1.2c.1 -.4 .2 -.9 .4 -1.2c.2 -.4 .4 -.8 .6 -1.2c.2 -.3 .5 -.6 .8 -.9c.3 -.3 .6 -.6 1 -.9c.3 -.2 .7 -.4 1.1 -.6c.4 -.1 .8 -.2 1.2 -.3c.4 -.1 .8 -.1 1.3 -.1c.4 0 .8 0 1.2 .1c.5 .1 .9 .2 1.3 .3c.3 .2 .7 .4 1.1 .6c.3 .3 .7 .6 1 .9c.3 .3 .5 .6 .8 .9c.2 .4 .4 .8 .6 1.2c.1 .3 .2 .8 .3 1.2c.1 .4 .2 .8 .2 1.2Z" class="g4_6"/>
<path d="M1219 1034.6c0 .4 -.1 .8 -.2 1.2c-.1 .4 -.2 .9 -.3 1.2c-.2 .4 -.4 .8 -.6 1.2c-.3 .3 -.5 .6 -.8 .9c-.3 .3 -.7 .6 -1 .9c-.4 .2 -.8 .4 -1.1 .6c-.4 .1 -.8 .2 -1.3 .3c-.4 .1 -.8 .1 -1.2 .1c-.5 0 -.9 0 -1.3 -.1c-.4 -.1 -.8 -.2 -1.2 -.3c-.4 -.2 -.8 -.4 -1.1 -.6c-.4 -.3 -.7 -.6 -1 -.9c-.3 -.3 -.6 -.6 -.8 -.9c-.2 -.4 -.4 -.8 -.6 -1.2c-.2 -.3 -.3 -.8 -.4 -1.2c-.1 -.4 -.1 -.8 -.1 -1.2c0 -.5 0 -.9 .1 -1.3c.1 -.4 .2 -.8 .4 -1.2c.2 -.4 .4 -.8 .6 -1.1c.2 -.4 .5 -.7 .8 -1c.3 -.3 .6 -.6 1 -.8c.3 -.3 .7 -.5 1.1 -.6c.4 -.2 .8 -.3 1.2 -.4c.4 -.1 .8 -.1 1.3 -.1c.4 0 .8 0 1.2 .1c.5 .1 .9 .2 1.3 .4c.3 .1 .7 .3 1.1 .6c.3 .2 .7 .5 1 .8c.3 .3 .5 .6 .8 1c.2 .3 .4 .7 .6 1.1c.1 .4 .2 .8 .3 1.2c.1 .4 .2 .8 .2 1.3Z" class="g4_6"/>
<path d="M426.6 666.6l3.3 -3.2l3.2 3.3l-3.2 3.2m3.2 -9.7l3.3 -3.3l3.2 3.3l-3.2 3.2m3.2 -9.7l3.3 -3.2l3.2 3.2l-3.2 3.3m3.2 -9.8l3.3 -3.2l3.2 3.2l-3.2 3.3m3.2 -9.7l3.3 -3.3l3.2 3.3l-3.2 3.2m3.2 -9.7l3.3 -3.2l3.2 3.2l-3.3 3.2m3.3 -9.7l3.3 -3.2l3.2 3.2l-3.3 3.3m3.3 -9.7l3.2 -3.3l3.3 3.3l-3.3 3.2m3.3 -9.7l3.2 -3.2l3.3 3.2l-3.3 3.2m3.3 -9.7l3.2 -3.2l3.3 3.2l-3.3 3.3m3.3 -9.7l3.2 -3.3l3.3 3.3l-3.3 3.2m3.3 -9.7l3.2 -3.3l3.3 3.3l-3.3 3.2m3.3 -9.7l3.2 -3.2l3.3 3.2l-3.3 3.3m3.3 -9.8l3.2 -3.2l3.2 3.3l-3.2 3.2m3.3 -9.7l3.2 -3.3l3.2 3.3l-3.2 3.2m3.3 -9.7l3.2 -3.2l3.2 3.2l-3.2 3.3m3.2 -9.8l3.3 -3.2l3.2 3.2l-3.2 3.3m3.2 -9.7l3.3 -3.3l3.2 3.3l-3.2 3.2m3.2 -9.7l3.3 -3.2l3.2 3.2l-3.2 3.2m3.2 -9.7l3.3 -3.2l3.2 3.2l-3.2 3.3m3.2 -9.7l3.3 -3.3l3.2 3.3l-3.2 3.2m3.2 -9.7l3.3 -3.2l3.2 3.2l-3.2 3.2m3.2 -9.7l3.3 -3.2l3.2 3.2l-3.3 3.3m3.3 -9.7l3.3 -3.3l3.2 3.3l-3.3 3.2m3.3 -9.7l3.2 -3.3l3.3 3.3l-3.3 3.2m3.3 -9.7l3.2 -3.2l3.3 3.2l-3.3 3.3m3.3 -9.8l3.2 -3.2l3.3 3.3l-3.3 3.2M602 492l3.2 -3.3l3.3 3.3l-3.3 3.2Z" class="g6_6"/>
<path d="M422.6 664.2l-1.7 11.3l11.4 -1.6l-9.7 -9.7Z" class="g6_6"/>
<path d="M422.6 664.2l-1.7 11.3l11.4 -1.6l-9.7 -9.7Z" class="g7_6"/>
<path d="M605.4 482.1l11.3 -1.6l-1.6 11.4l-9.7 -9.8Z" class="g6_6"/>
<path d="M605.4 482.1l11.3 -1.6l-1.6 11.4l-9.7 -9.8Z" class="g7_6"/>
<path d="M1769.7 668l-3.2 -3.3l3.3 -3.1l3.2 3.3m-9.6 -3.5l-3.2 -3.3l3.3 -3.2l3.2 3.4m-9.7 -3.5l-3.1 -3.3l3.3 -3.2l3.1 3.3m-9.6 -3.4l-3.2 -3.4l3.3 -3.1l3.2 3.3m-9.6 -3.5l-3.2 -3.3l3.3 -3.2l3.2 3.4m-9.7 -3.5l-3.1 -3.3l3.3 -3.2l3.1 3.3m-9.6 -3.4l-3.2 -3.3l3.3 -3.2l3.2 3.3m-9.6 -3.5l-3.2 -3.3l3.3 -3.1l3.2 3.3M1719 615l-3.1 -3.3l3.3 -3.2l3.2 3.3m-9.7 -3.4l-3.2 -3.3l3.4 -3.2l3.1 3.3m-9.6 -3.5l-3.2 -3.3l3.3 -3.1l3.2 3.3m-9.7 -3.5l-3.1 -3.3l3.3 -3.2l3.2 3.4m-9.7 -3.5l-3.2 -3.3l3.4 -3.2l3.1 3.3m-9.6 -3.4l-3.2 -3.4l3.3 -3.1l3.2 3.3m-9.6 -3.5l-3.2 -3.3l3.3 -3.1l3.2 3.3m-9.7 -3.5l-3.1 -3.3l3.3 -3.2l3.1 3.3m-9.6 -3.4l-3.2 -3.3l3.3 -3.2l3.2 3.3m-9.6 -3.5l-3.2 -3.3l3.3 -3.1l3.2 3.3m-9.7 -3.5l-3.1 -3.3l3.3 -3.2l3.1 3.3m-9.6 -3.4l-3.2 -3.3l3.3 -3.2l3.2 3.3m-9.6 -3.4l-3.2 -3.4l3.3 -3.1l3.2 3.3m-9.7 -3.5l-3.1 -3.3l3.3 -3.2l3.2 3.4m-9.7 -3.5l-3.2 -3.3l3.4 -3.2l3.1 3.3m-9.6 -3.4l-3.2 -3.4l3.3 -3.1l3.2 3.3m-9.7 -3.5l-3.1 -3.3l3.3 -3.1l3.2 3.3m-9.7 -3.5l-3.1 -3.3l3.3 -3.2l3.1 3.3m-9.6 -3.4l-3.2 -3.3l3.3 -3.2l3.2 3.3m-9.6 -3.5l-3.2 -3.3l3.3 -3.1l3.2 3.3Z" class="g6_6"/>
<path d="M1767.2 672l11.3 1.9l-1.4 -11.4l-9.9 9.5Z" class="g6_6"/>
<path d="M1767.2 672l11.3 1.9l-1.4 -11.4l-9.9 9.5Z" class="g8_6"/>
<path d="M1589 485.5l-1.4 -11.4l11.3 1.9l-9.9 9.5Z" class="g6_6"/>
<path d="M1589 485.5l-1.4 -11.4l11.3 1.9l-9.9 9.5Z" class="g8_6"/>
<path d="M1155.6 949H1151l.1 -4.6h4.6m-9.2 4.6l-4.6 -.1v-4.6l4.6 .1m-9.2 4.5h-4.6v-4.6h4.6m-9.2 4.5h-4.6l.1 -4.6h4.6m-9.2 4.6l-4.6 -.1v-4.6l4.6 .1m-9.2 4.5h-4.6v-4.6h4.6m-9.2 4.5H1096l.1 -4.6h4.6m-9.2 4.6l-4.6 -.1v-4.6l4.6 .1m-9.2 4.5h-4.6v-4.6h4.6m-9.2 4.5h-4.6l.1 -4.6h4.6m-9.2 4.6l-4.6 -.1v-4.6l4.6 .1m-9.2 4.5h-4.6v-4.6h4.6m-9.2 4.5h-1.3l.1 -4.6l1.3 .1Z" class="g6_6"/>
<path d="M1156.7 953.6l9.3 -6.8l-9.2 -6.9l-.1 13.7Z" class="g6_6"/>
<path d="M1156.7 953.6l9.3 -6.8l-9.2 -6.9l-.1 13.7Z" class="g5_6"/>
<path d="M1043.1 952.8l-9.1 -6.9l9.2 -6.9l-.1 13.8Z" class="g6_6"/>
<path d="M1043.1 952.8l-9.1 -6.9l9.2 -6.9l-.1 13.8Z" class="g5_6"/>
</svg>