<?xml version="1.0" encoding="UTF-8" standalone="no"?>
<!DOCTYPE svg PUBLIC "-//W3C//DTD SVG 1.1//EN"
"http://www.w3.org/Graphics/SVG/1.1/DTD/svg11.dtd">
<svg viewBox="0 0 2200 1237" version="1.1" xmlns="http://www.w3.org/2000/svg" xmlns:xlink="http://www.w3.org/1999/xlink">
<defs>
<clipPath id="c0_7"><path d="M-.2 1237.8V-.2H2200.3v1238Z"/></clipPath>
<clipPath id="c1_7"><path d="M0 181.5V65.9H84.8c24.8 .4 46.1 16.6 54.2 38.6c0 .1 0 .2 .1 .4c2 5.8 3.2 12.2 3.2 18.8c0 6.6 -1.4 13.4 -3.4 19.3c-7.9 22.2 -29.1 38.2 -54.2 38.5Z"/></clipPath>
<clipPath id="c2_7"><path d="M1322.5 1080.8V464.9h705.3v615.9Z"/></clipPath>
<style type="text/css"><![CDATA[
.g0_7{
fill: #FFF;
}
.g1_7{
fill: #000;
}
.g2_7{
fill: none;
stroke: #000;
stroke-width: 4.583;
stroke-miterlimit: 10;
}
]]></style>
</defs>
<g clip-path="url(#c0_7)">
<path d="M0 0H2200V1237.5H0V0Z" class="g0_7"/>
<path d="M0 0H2200V1237.5H0V0Z" class="g0_7"/>
<image preserveAspectRatio="none" x="0" y="-480" width="2200" height="2199" xlink:href="img/1.jpg"/>
</g>
<path clip-path="url(#c1_7)" d="M0 181.5V65.9H142.2V181.5H0Z" class="g1_7"/>
<path clip-path="url(#c0_7)" d="M192.7 183.8H2200" class="g2_7"/>
<path clip-path="url(#c2_7)" d="M1378.8 1080.5c-.9 -1.1 -.3 -2.1 .2 -3.2c2.3 -4.9 4.5 -9.9 6.9 -14.8c11.8 -23.7 24.1 -47.1 37.3 -70c5.4 -9.3 11.5 -18.2 18.2 -26.7c5 -6.3 11 -11.4 18 -15.2c3 -1.7 6 -3.4 9.2 -4.7c11.5 -4.9 20.5 -12.8 27.6 -23.1c7.3 -10.6 14 -21.6 20.4 -32.8c4.5 -7.9 9.3 -15.5 15.8 -22.1c8.5 -8.6 19 -13 30.6 -15.1c5.4 -.9 10.9 -1.3 16.3 -1.9c2.1 -.2 2.3 -.4 2.8 -2.4c.6 -2.3 .8 -4.8 1 -7.2c.4 -6.4 -.5 -12.7 -2.1 -18.9c-.4 -1.9 -1 -3.8 -1.4 -5.6c-.7 -.2 -1.1 .1 -1.6 .3c-10.5 4.3 -20.6 9.3 -30.3 15.4c-8.1 5.1 -14.7 11.5 -19.7 19.7c-3 5.1 -6.4 10.1 -9.9 14.9c-7.7 10.8 -17.3 19.7 -27.6 27.9c-5.7 4.5 -11.5 8.6 -17.7 12.4c-9.8 6 -19.3 12.5 -29 18.7c-2.2 1.5 -4.5 2.9 -6.9 4.2c-.4 .3 -1 .6 -1.5 .8c-.4 .2 -.9 .2 -1.1 -.2c-.2 -.4 -.1 -.8 .2 -1.1c.5 -.7 1.1 -1.2 1.8 -1.7c2 -1.3 3.9 -2.6 5.9 -4c9.1 -6.3 18.2 -12.6 27.7 -18.5c13.5 -8.3 25.8 -18.3 37 -29.6c6.5 -6.7 12 -14.2 17 -22.1c.2 -.2 .4 -.5 .5 -.8c5.9 -11.1 14.9 -19.1 25.5 -25.5c8.6 -5.2 17.6 -9.6 26.9 -13.5c8.2 -3.5 16.1 -7.4 24.1 -11.4c4.5 -2.3 8.7 -5.1 12.7 -8.3c6.4 -5.2 11 -11.7 13.7 -19.6c.5 -1.6 1.1 -3.1 1.5 -4.6c.4 -1.2 .7 -2.4 .8 -3.6c.3 -2.2 0 -2.6 -2.3 -2.5c-4.3 .3 -8.6 1.2 -12.8 2.3c-20.7 4.9 -41.2 10.7 -61.8 16c-6.5 1.7 -13 3.2 -19.7 4c-5.4 .7 -10.7 .3 -16 -.9c-3.1 -.7 -5.4 -2.5 -6.9 -5.4c-.9 -1.8 -1.8 -3.5 -2.2 -5.4c-.4 -2 -.2 -3.7 1.8 -5.4c-.4 4.1 2 6.9 3.6 10c1.3 2.3 3.3 3.4 5.9 3.9c4.8 .8 9.6 .7 14.4 -.1c9.1 -1.5 18 -3.9 26.9 -6.4c.4 -.1 .7 -.3 1.1 -.5c-.1 -.4 -.2 -.7 -.3 -1c-3.2 -7.5 -5.2 -15.4 -6.5 -23.5c-.2 -1.1 -.4 -2.1 -.8 -3.1c-.7 -1.3 -1.3 -1.7 -2.7 -1.4c-1.6 .3 -3.1 .7 -4.6 1c-1.4 .3 -3 .9 -4.1 -.5c-1 -1.5 .1 -2.8 .9 -4.1c1.6 -2.4 3.6 -4.4 5.7 -6.3c4.2 -3.7 4.3 -3.7 4 -9.2c-.6 -8.6 -.3 -17.1 -.2 -25.7c0 -1.9 0 -3.8 0 -5.5c-.6 -.3 -.9 -.2 -1.2 -.1c-7.4 4.5 -15.1 8.4 -22.4 13c-15.3 9.7 -29 21.2 -40.2 35.5c-8.2 10.6 -15.8 21.6 -24.2 32.1c-5.2 6.5 -10.6 12.8 -16.1 19c-6.1 6.7 -11.9 13.5 -17.9 20.2c-7.9 8.8 -16.7 16.8 -24.9 25.3c-9.4 9.8 -18.9 19.4 -28.9 28.6c-5.5 5.2 -10 11.2 -13.9 17.6c-9 14.8 -19.2 28.9 -28.8 43.2c-2.5 3.8 -5.7 7.2 -8.8 10.5c-.3 .4 -.7 .7 -1.1 1c-.4 .3 -.9 .3 -1.3 -.1c-.5 -.4 -.4 -.9 -.1 -1.3c.6 -1 1.2 -1.9 1.9 -2.9c10.5 -14.9 21 -29.9 31.4 -44.9c1.3 -1.9 2.6 -3.8 3.8 -5.7c5.2 -8.5 11.7 -16.1 18.7 -23.2c16.7 -17 33.5 -33.9 49.6 -51.5c17.4 -19.1 34.3 -38.6 49.7 -59.3c5.4 -7.4 11.2 -14.5 17.4 -21.2c7.9 -8.4 17.1 -15.1 26.4 -21.8c8.1 -6 16.9 -10.8 25.5 -15.9c1.2 -.7 2.3 -1.3 3.6 -1.7c1.2 -.4 1.6 -1 1.6 -2.3c.5 -11.4 2.1 -22.7 4.2 -33.9c1.1 -5.9 2 -11.8 3 -17.7c.3 -2 .3 -2.1 -1.8 -2.5c-6.4 -1.2 -12.8 -2.3 -19.1 -4c-9.8 -2.6 -19.2 -6 -27.8 -11.3c-13.9 -8.4 -23.3 -20.3 -26.4 -36.4c-2.8 -14.2 -.9 -28 5.9 -41.1c5.8 -11 13.8 -20.4 22.9 -28.8c12.6 -11.7 26.6 -21.3 41.9 -29c4.6 -2.3 9.3 -4.5 13.9 -6.8c6.2 -3.1 12.8 -5.4 19.6 -6.9c4.2 -.9 8.1 0 11.5 2.6c.7 .5 1.5 .7 2.3 .9c6 1.5 8.9 8.8 5.6 14.1c-.5 .7 -1 1.3 -2 1.2c-.9 0 -1.4 -.8 -1.6 -1.6c-.4 -1.6 -.7 -3.3 -1.1 -5c-.4 -1.6 -.9 -3.1 -1.6 -4.6c-.6 -1.2 -1.5 -1.6 -2.8 -1.4c-2.7 .4 -5.2 1.3 -7.6 2.6c-2.6 1.4 -5.1 3.2 -7.4 5.2c-6.7 5.9 -12.1 12.7 -15.2 21.3c-1 2.7 -1.7 5.6 -1.7 8.6c0 9 5.3 14.8 14.3 15.3c6.9 .4 13.5 -1 19.3 -5.1c7.1 -4.9 13.6 -10.7 19.8 -16.7c.9 -.8 1.3 -1.9 1.8 -2.9c3.9 -8.1 7.7 -16.2 12.5 -23.8c3.3 -5.3 6.9 -10.3 10.9 -15.1c.7 -.8 1.3 -1.7 2.2 -2.3c1.3 -.7 2.3 -.2 2.5 1.2c.1 .9 -.2 1.8 -.4 2.7c-1.3 4.3 -3.2 8.4 -5.3 12.3c-5.2 9.3 -11.3 18 -18.7 25.7c-2.3 2.3 -3.6 4.9 -4.9 7.9c.8 .2 1.1 -.4 1.5 -.8c1.6 -1.4 3.3 -2.8 5.2 -4.1c.7 -.5 1.5 -1 2.3 -1.3c2.1 -.8 3.6 .2 3.5 2.5c-.1 1.2 -.4 2.4 -.7 3.6c-.6 2.4 -1.2 4.9 -1.9 7.3c-.3 1.3 -.4 2.6 -.3 3.9c.2 1.8 .9 2.4 2.8 2.3c1 0 1.9 -.3 2.8 -.7c4 -1.7 7.2 -4.4 10.4 -7.3c.6 -.5 .7 -1.2 .7 -1.9c.6 -4.7 2.6 -8.6 5.7 -12c1.4 -1.7 2.9 -2.1 4 -1.4c1.1 .6 1.5 2.2 1 4.2c-.4 2 -1.4 3.7 -2.5 5.3c-1.2 1.8 -2.6 3.5 -4.2 5.1c-.9 .9 -.9 1.8 -.4 2.9c.7 1.9 2.2 2.9 4.2 3.2c1.8 .3 3.4 -.1 5.1 -.6c3 -1.1 5.7 -2.8 8.3 -4.7c.7 -.5 .9 -1.2 1 -2.1c.7 -3.6 1.9 -7.1 4 -10.1c.9 -1.3 1.9 -2.5 3.3 -3.3c1 -.5 2.1 -.9 3.2 -.2c1.2 .7 1.3 1.8 1.2 3c-.1 1.7 -.9 3.1 -1.8 4.5c-1.7 2.7 -3.8 5.1 -6 7.4c-1.4 1.3 -1.5 2.1 -.7 3.4c.7 1.1 1.7 1.4 3.4 .9c1.3 -.4 2.4 -1 3.4 -1.8c3.5 -3.1 6.1 -6.7 7.1 -11.2c.4 -1.6 .6 -3.2 1.1 -4.8c.5 -2.1 1.5 -2.6 3.6 -2.3c.2 .1 .5 .1 .7 .2c6.2 2.2 12.1 .9 17.8 -1.6c.3 -.1 .6 -.2 .9 -.4c.7 -.2 1.4 -.1 1.8 .5c.3 .7 .1 1.3 -.5 1.7c-.8 .5 -1.6 1 -2.2 1.5c-4.5 4.1 -8.1 8.8 -10.3 14.5c-.2 .5 -.4 1.1 -.5 1.6c-.6 2.6 .2 3.5 2.7 2.8c1.2 -.3 2.3 -.8 3.4 -1.4c4.5 -2.1 8.5 -5.1 12.1 -8.6c2.8 -2.8 5.3 -5.8 7.8 -8.9c.4 -.5 .8 -1.1 .9 -1.9c.1 -.7 .4 -1.4 .9 -2c.5 -.5 1.1 -1 1.9 -.6c.8 .3 .8 1.1 .5 1.7c-.4 1 -.2 1.8 .5 2.7c2.7 3.3 3.7 7.4 4.4 11.5c.2 .8 .2 1.8 .6 2.6c.2 0 .4 0 .5 0c6.2 -4 13.2 -6.5 20.1 -8.9c13.8 -4.9 27.6 -9.6 41.9 -12.7c6.2 -1.3 12.5 -2.4 18.9 -2.3c.9 .1 1.8 -.1 2.9 .5c-1.8 .1 -3.2 .2 -4.7 .3c-9.2 .9 -18.1 3.4 -26.9 6.1c-13 3.9 -25.8 8.2 -38.4 13.3c-4.4 1.8 -8.7 3.8 -12.8 6.1c-1.3 .7 -1.9 1.5 -2.1 3c-.5 3.5 -1.8 6.7 -4 9.6c-1.4 1.8 -3.1 3.1 -5.3 3.7c-3 .8 -4.7 -.8 -4.1 -3.8c.5 -2.2 1.8 -4 3.2 -5.7c1.9 -2.2 4.2 -4.1 6.6 -5.9c.6 -.5 1.3 -.9 1.2 -1.9c-.7 -4.8 -1.8 -9.5 -4.7 -13.5c-.9 0 -1.1 .7 -1.5 1.2c-3.3 3.7 -6.5 7.3 -10.1 10.6c-2.9 2.6 -6 4.9 -9.5 6.6c-1.6 .8 -3.3 1.4 -5.1 1.6c-3.1 .3 -4.8 -1.4 -4.6 -4.5c.1 -1.3 .4 -2.6 .8 -3.8c1.2 -3.4 3 -6.5 5.2 -9.4c.5 -.6 1 -1.3 1.9 -2.5c-5.3 1.1 -9.9 .7 -14.1 -1.6c-.8 .9 -.8 1.9 -.9 2.7c-1 6.4 -4.1 11.5 -8.5 15.9c-1.1 1.1 -2.3 1.9 -3.8 2.3c-2.8 .9 -4.9 .2 -6.5 -2.3c-.2 -.4 -.5 -.8 -.7 -1.2c-1 .1 -1.5 .8 -2.2 1.2c-2.4 1.7 -5 3.1 -7.9 3.9c-5.2 1.3 -8.5 0 -11.5 -4.5c0 -.1 -.2 -.2 -.4 -.3c-1.8 1.5 -3.6 3 -5.5 4.4c-2.3 1.6 -4.7 2.9 -7.5 3.4c-3.9 .7 -6.4 -1.2 -6.8 -5.1c-.3 -2.5 .1 -4.9 .7 -7.3c.6 -2.2 1.3 -4.4 1.9 -6.6c.1 -.3 .2 -.6 0 -.9c-1 .1 -1.7 .9 -2.4 1.5c-4.8 4 -9.2 8.3 -12.4 13.8c-.4 .7 -1 1.4 -1.9 1c-1.1 -.5 -1 -1.4 -.6 -2.3c.3 -.8 .8 -1.6 1.3 -2.3c1.5 -2.2 2.4 -4.6 3.5 -7.1c-1 0 -1.3 .6 -1.7 1.1c-3.4 3.2 -6.9 6.3 -10.4 9.2c-5.3 4.5 -11.5 6.4 -18.2 7.3c-2.6 .4 -5.3 .6 -8 .2c-9.7 -1.5 -15.6 -8 -15.9 -17.8c-.1 -3.9 .6 -7.7 1.9 -11.3c4.6 -11.7 12.6 -20.5 23.4 -26.8c1.9 -1.2 4.1 -1.8 6.6 -2.7c-1.1 -.6 -1.9 -.5 -2.8 -.4c-3.3 .1 -6.6 .9 -9.8 1.8c-3.3 1 -6.6 2 -9.7 3.4c-10.5 5 -21.2 9.9 -31.2 16c-14.8 9 -28 19.9 -39.2 33.2c-7.3 8.8 -12.7 18.5 -15 29.7c-3.1 15.1 -1.2 29.5 7.5 42.6c4.6 7 10.8 12.2 17.8 16.5c11.3 6.9 23.5 11.1 36.3 13.5c3.1 .6 6.1 1.1 9.2 1.6c1.6 .3 1.7 .3 2 -1.4c1.2 -6.4 2.2 -12.8 3.6 -19.2c2.5 -11 5.2 -22.1 7.8 -33.1c1.1 -4.9 2.1 -9.9 3.2 -14.8c1 -4 2.5 -7.8 4.2 -11.5c.4 -.8 .9 -1.5 1.4 -2.3c.4 -.5 1.1 -.9 1.7 -.4c.8 .6 1.6 .4 2.4 .4c9.7 -.1 19.4 0 29.1 1c19.3 1.8 38.4 4.7 57 10.4c2.9 .8 5.8 1.7 8.5 3.2c1.9 1 2 1.6 1 3.8c.6 .9 2.1 1.1 2.5 2.7c-1.8 -.2 -3.3 -.7 -4.7 -1.3c-1.3 -.4 -2.5 -.6 -3.8 -.6c-9.7 .5 -19.3 .1 -28.9 -.9c-10.3 -1 -20.6 -2.1 -30.9 -3.2c-7.6 -.8 -15.1 -1.9 -22.3 -4.4c-1.4 -.4 -2.7 -.9 -3.8 -1.7c-1.5 -1.1 -1.4 -2.4 .4 -3.1c1.3 -.5 2.7 -.6 4.1 -.6c7.7 -.3 15.3 .1 23 .7c8 .6 16.1 1.4 24.1 2.3c11.9 1.4 23.5 3.8 34.8 7.9c.9 .4 1.7 .9 2.8 .2c-.7 -.9 -1.8 -1 -2.8 -1.3c-8.6 -2.6 -17.4 -4.6 -26.2 -6.3c-12.5 -2.5 -25.2 -4.2 -38 -5.2c-8.7 -.7 -17.3 -1 -26 -1.1c-2 0 -1.9 -.4 -2.8 2.1c-5.1 12.8 -7.7 26.3 -11.1 39.5c-3.2 12.2 -5.5 24.7 -8.3 37c-.5 2.2 -.4 2.2 1.9 2.6c15.7 2.7 31.5 4.8 47.3 6.4c11.2 1.2 22.4 2.3 33.7 3.4c1.3 .1 2.6 .6 4.2 .3c-.7 -3.8 -1.4 -7.6 -2.2 -11.3c-1.9 -9.5 -3.9 -19 -5.8 -28.5c-.8 -4 -.2 -7.7 2.8 -10.7c-.4 -.8 -1.1 -.4 -1.6 -.4c-1.4 -.1 -2.9 -.1 -4.3 -.5c-2.1 -.6 -2.5 -2.3 -1.2 -4c1.1 -1.2 2.4 -2 3.8 -2.7c7.3 -3.8 14.9 -6.9 23 -8.8c5.3 -1.2 10.8 -2.1 16 -3.6c1.6 -.5 3.1 -.6 4 1.2c.5 1 1.3 .4 1.9 .2c3.6 -1.1 7.2 -2.3 10.8 -3.4c12.2 -3.8 24.3 -7.9 36.7 -11.2c3.2 -.9 6.4 -1.4 9.7 -1.7c2.3 -.2 4.4 .3 6.1 2.1c2.4 2.5 4.5 5.1 6.1 8c7.9 14.3 15.9 28.5 22.5 43.5c5 11.4 10.3 22.7 15.1 34.2c2.2 5.2 4 10.5 5.6 15.9c1.1 3.7 2.4 7.3 4.5 10.6c.9 1.2 1.8 1.8 3.4 1.7c4.7 -.1 9.3 -.9 14 -.5c3.9 .4 7.8 .8 11.7 1c19 1.2 37.9 2.8 56.9 3.5c7.4 .3 14.7 .8 22.1 .9c7 0 12.5 2.8 16.4 8.5c2.6 3.7 5.1 7.6 7.6 11.4c9.6 14.7 20.2 28.5 31.9 41.5c9.9 10.9 19.4 22.1 28.3 33.8c6 7.7 12.5 14.8 18.7 22.3c3.1 3.7 6.1 7.3 9.1 11c.9 1.1 1.8 2.3 2.5 3.6c.6 1.2 1 2.4 .7 3.8c-1 .2 -1.5 -.5 -2 -1.1c-9.9 -12.1 -20.4 -23.6 -30 -35.9c-10 -12.8 -20.7 -25.1 -31.6 -37.1c-6.3 -7.1 -11.8 -14.8 -17.6 -22.3c-5.5 -7.1 -10.6 -14.5 -15.5 -22c-1.3 -2.2 -2.9 -4.2 -4.2 -6.3c-3.2 -5 -7.8 -7.2 -13.6 -7.3c-4.1 -.1 -8.2 -.1 -12.3 -.3c-14.8 -.7 -29.6 -1.8 -44.5 -2.8c-7.9 -.5 -15.8 -.7 -23.7 -1.3c-2.2 -.2 -4.4 -.3 -6.6 -.5c-6 -.8 -12.1 -.5 -18.1 .1c-2.9 .2 -4.8 -.9 -6.2 -3.4c-1.5 -2.7 -2.8 -5.5 -3.9 -8.4c-.9 -2.6 -1.8 -5.1 -3.1 -7.4c-1.8 -3.4 -3.7 -4.9 -7.7 -6.2c.2 2.8 -1.6 3.9 -3.9 4.4c-3.6 .8 -7.3 .8 -11 1.2c-12.5 1.4 -25 2.2 -37.6 2.8c-7.9 .4 -15.8 .3 -23.7 .3c-8.3 -.1 -16.5 -.1 -24.8 -.1c-.3 0 -.7 0 -1 0c-1 -.1 -1.4 .3 -1.5 1.4c-.2 2.6 -.6 5.1 -.8 7.8c-1.2 17 -3.9 33.8 -7.9 50.4c-.2 1.1 -.4 2 0 3.1c4.3 12.7 8.2 25.5 13.3 37.8c4 9.8 8.9 19.1 15 27.8c2.6 3.7 5.2 7.3 8.9 10c.7 .6 1.5 1.2 1.9 1.9c1.1 2.2 3 2.1 4.9 1.7c3.9 -.8 7.8 -1.7 11.7 -2.6c9.6 -2.4 19 -5.7 28.7 -8.2c4.5 -1.1 8.8 -2.9 13 -4.9c11 -5.2 21.8 -11 33.2 -15.7c2.5 -1 5.1 -2.1 7.7 -3c1.2 -.4 1.5 -1.1 1.4 -2.2c-.4 -7.9 -.8 -15.8 -1.2 -23.7c-.2 -4.4 -.3 -8.8 -.4 -13.2c0 -2.6 .5 -5.1 2.1 -7.3c-.7 -.7 -1.8 -1.1 -1.5 -2.3c.2 -1.1 1.1 -1.7 2 -2.3c1.3 -.7 2.7 -.7 4.1 -.8c4.9 -.3 9.8 0 14.7 .3c4.9 .3 9.9 .9 14.8 1.3c7.4 .6 13.2 4.1 17.8 9.7c4 4.8 4.5 10.3 2.6 16.1c-1.4 4.3 -3.6 8.2 -6.2 11.9c-9 13.2 -21.2 22.2 -36.5 26.9c-3 1 -6.1 1.9 -9.2 2.4c-1.7 .2 -2.4 1.1 -2.7 2.6c-1.7 7.3 -4 14.4 -6.4 21.6c-1.7 5.3 -3.7 10.6 -5.5 15.9c-.3 .8 -.8 1.6 -.6 2.7c1.8 .2 3.7 -.1 5.5 -.2c2.9 -.1 5.7 -.4 8.6 -.5c5 -.1 9.9 -.6 14.8 -1.4c2 -.4 4.1 -.7 5.8 1.1c.3 .5 1 .3 1.6 .3c16.1 .6 31.2 5 45.8 11.3c6 2.6 11.8 4.7 18.4 5.5c11.7 1.2 22.7 5.2 33.2 10.4c12.3 6.1 24.2 12.6 35.5 20.3c2.8 1.9 5.4 4 8 6c.9 .7 1.8 1.5 2.4 2.5c1.3 2.2 .5 4.2 -1.9 4.9c-1.6 .4 -3.3 .3 -4.9 .2c-9.5 -.8 -18.3 -4.1 -26.7 -8.3c-4.4 -2.2 -8.5 -5 -12.5 -7.8c-8.5 -5.8 -16.8 -11.8 -25.7 -17.1c-4.7 -2.7 -9.6 -5.3 -14.5 -7.6c-1.2 -.6 -2.4 -.8 -3.8 -.9c-11.6 -.9 -22.7 1.6 -33.4 6c-7.7 3.3 -15 7.1 -22.6 10.7c-9.9 4.7 -20 8.7 -30.7 11.3c-.2 0 -.5 .1 -.7 .2c-1.5 .4 -1.5 .5 -1 2c1.5 3.8 2.8 7.7 4.4 11.4c5.8 13.9 9.9 28.3 14.4 42.7c3.1 10.3 5.9 20.7 9.6 30.8c2.8 7.6 6.4 14.8 11.3 21.3c.7 .9 1.3 1.3 2.4 1.1c2 -.2 3.8 -.7 5.7 -1.3c7 -2.2 13.9 -4.9 20.8 -7.3c8.3 -3 16.8 -5.2 25.6 -6.4c2.5 -.4 5.1 -.4 7.6 -.2c5.3 .6 7.7 4.9 5.5 9.7c-.9 2.2 -2.5 4 -4.1 5.7c-3.3 3.4 -6.9 6.3 -10.8 8.9c-23.5 16 -47.7 30.8 -73.9 42.1c-5.8 2.5 -11.7 4.6 -17.9 5.7c-3.9 .7 -7.8 1.1 -11.8 1c-6.5 -.2 -8.7 -4 -5.5 -9.8c2 -3.8 4.8 -7 7.8 -10c6.1 -6.1 12.9 -11.2 19.9 -16.3c2.1 -1.6 4.3 -3.2 6.5 -4.7c1.9 -1.1 2.5 -2.6 2.3 -4.7c-.3 -2.6 -.8 -5.1 -1.7 -7.6c-7.7 -22.2 -14.8 -44.6 -23.5 -66.4C1792.1 911 1787 896.8 1781.8 882.8c-.6 -1.6 -1.2 -2.7 -3.1 -2.8c-1.5 -.1 -2.9 -.6 -4.2 -1.3c-3.6 -1.9 -5.1 -5.4 -3.8 -9.3c.5 -1.4 1.3 -2.6 2.1 -3.9c.3 -.4 .8 -.8 .4 -1.7c-.9 0 -1.6 .6 -2.3 1c-4.6 2.3 -9.2 4.4 -14.2 5.3c-7.4 1.3 -13.4 -1.1 -18.1 -6.8c-3.5 -4.2 -3 -8.8 .4 -13.2c1.7 -2.2 4.1 -3.9 6.6 -5.3c1.8 -.9 3.5 -1.7 5.3 -2.6c1.1 -.6 2.3 -.6 3.3 -.1c5.4 2.6 10.8 5.1 14.9 9.6c1.8 2 3.3 4.1 4.6 6.4c.5 1.1 1.1 1.4 2.2 .6c2 -1.4 4.1 -2.6 6.2 -4c3.4 -2.2 6.7 -4.5 10.1 -6.8c.8 -.5 1.5 -1 1.5 -2c.3 -3.6 1.2 -7 2.1 -10.3c.1 -.3 .1 -.7 .1 -1.3c-1.5 .2 -3 .3 -4.4 .5c-9.2 1.1 -18.2 2.8 -27.3 4.5c-6.9 1.2 -13.9 2.3 -20.9 2.6c-6.2 .2 -12.4 -.2 -18.5 -1.4c-4 -.8 -7.7 -2.2 -10.6 -5.3c-4.2 -4.5 -4.6 -9 -1.1 -14.2c2.7 -4.1 6.5 -7 10.8 -9.3c5.2 -2.8 10.5 -5.4 15.8 -7.8c.9 -.3 1.7 -.5 2.7 -1.5c-3.1 .7 -5.8 1.4 -8.5 2.1c-5 1.3 -10.2 2.1 -15.3 2.9c-1.3 .2 -2.5 .1 -3.7 -.1c-.6 -.2 -1.2 -.4 -1.7 -.9C1700.9 795 1692.7 780.8 1686 765.6c-4.8 -11.1 -8.1 -22.8 -12.1 -34.2c-.2 -.7 -.5 -1.4 -.8 -2.2c-.9 .5 -.8 1.3 -1 2c-5.9 20 -14.7 38.7 -25.8 56.3c-3.7 5.9 -8.1 11.3 -12.4 16.7c-2.1 2.6 -4.1 5.3 -6.3 8.1c1.7 .8 3.3 1.5 4.8 2.1c2.2 1 4.2 2.2 6 3.8c4.8 4.4 5.8 11.2 2.4 16.7c-1.5 2.4 -3.7 3.9 -6.4 4.7c-4.2 1.2 -8.6 1.1 -12.9 .7c-.5 -.1 -.9 -.1 -1.3 -.2c-.4 .2 -.4 .5 -.3 .7c.9 4.6 -.6 8.2 -4.4 10.7c-2.4 1.6 -5 2.6 -7.7 3.2c-1.4 .3 -2 1 -2.3 2.4c-1.7 8.6 -3.1 17.3 -4.7 26c-2.7 15.9 -4.7 31.9 -7.3 47.9c-1.7 9.8 -3.5 19.6 -4.7 29.5c-1.1 8.7 -2 17.5 -2.4 26.3c0 1.3 0 2.6 .1 3.9c.1 1.7 1.2 2.9 2.8 3.4c10.6 3.2 21.4 6 32.2 8.3c7.5 1.5 14.8 3.3 22.1 5.5c3.7 1.2 7.3 2.5 10.8 4.1c1.9 .9 3.8 1.9 5.2 3.5c2.3 2.5 1.9 5.2 -.9 7c-1.3 .8 -2.7 1.2 -4.1 1.6c-6.8 2 -13.8 2.8 -20.8 3.5c-14.6 1.4 -29.3 .8 -44 -.4c-17.6 -1.6 -35.1 -3.7 -52.4 -7c-11.2 -2.1 -22.2 -5.2 -32.9 -9.3c-4.5 -1.7 -8.6 -4.1 -11.8 -7.7c-.9 -1 -1.7 -2 -2.2 -3.2c-1.4 -3.2 -.3 -6 3 -7.1c3.6 -1.2 7.3 -1.7 11.1 -2c9.6 -1 19.2 -.6 28.8 -.3c7.5 .2 14.9 .5 22.3 .2c2.7 -.1 5.4 -.4 8.1 -.9c2 -.4 3 -1.5 3.9 -3.4c3.2 -6.9 3.9 -14.2 4.7 -21.4c2 -18.9 3.9 -37.9 6 -56.7c1 -9.5 2.4 -19 3.5 -28.5c.9 -7.4 1.3 -14.9 1.5 -22.4c0 -1.3 -.4 -1.8 -1.7 -1.8c-1.7 0 -3.4 -.2 -5 -.7c-1.2 -.3 -2.6 .1 -3.9 .2c-5.4 .4 -10.7 .8 -16 2.2c-12.1 3.2 -21.2 10.5 -28.2 20.6c-3 4.3 -5.6 8.8 -8.2 13.4c-7 12.8 -14.8 25.2 -23.7 36.8c-6.2 8.1 -14 14.4 -23.2 18.8c-4.4 2.1 -8.6 4.7 -12.8 7.2c-6.8 4.1 -12.4 9.5 -17.3 15.7c-9.2 11.6 -17.1 24.1 -24.4 36.9c-11.8 20.7 -22.9 41.7 -33.5 62.9c-1.8 3.6 -3.8 7.2 -5.7 10.8c-.3 0 -.6 0 -1 0Zm268.3 -432c-.4 -.4 -.8 -.3 -1.2 -.4c-10.7 -1.4 -21.4 -2.2 -32.1 -3.3c-16.4 -1.7 -32.6 -3.8 -48.8 -6.6c-3.2 -.6 -2.6 -.6 -3.3 2.4c-.1 .2 -.1 .3 -.1 .5c-1.2 7.9 -2.6 15.8 -3.7 23.7c-1.5 9.9 -3.2 19.9 -2.8 30.1c.2 3.2 -.1 6.5 -.1 9.7c-.1 8.5 -.1 17 .5 25.5c.2 3.7 -1 6.5 -3.8 8.7c-1.6 1.3 -3.2 2.6 -4.6 4c-1.1 1 -2.1 2 -2.5 3.5c.7 .3 1.4 .1 2 -.1c1.3 -.3 2.7 -.7 4 -.9c2.8 -.6 4.5 .3 5.7 3c.7 1.4 1.1 2.9 1.3 4.4c1.1 7.6 3.6 14.7 6.6 21.7c.3 .9 .8 1.2 1.6 .9c.4 -.2 .8 -.3 1.2 -.4c15.5 -4.4 31.2 -8.4 46.9 -11.9c4.6 -1.1 9.2 -1.9 13.9 -1.7c3.7 .1 5 1.7 4.6 5.5c-.3 2.9 -1.2 5.7 -2.2 8.4c-2.8 8.1 -7 15.3 -13.6 20.9c-4.4 3.8 -9.2 7.1 -14.4 9.7c-6 3 -11.9 6 -18.1 8.7c-1.3 .6 -1.6 1.2 -1.3 2.6c1.2 6.2 2.3 12.5 2.5 18.9c.2 5.3 .7 10.7 -1.5 15.9c-.1 .2 0 .4 0 1.1c1.5 -1.5 2.6 0 3.9 0c4.4 .2 8.8 .7 13.3 .2c2.5 -.3 2.6 -.3 3.2 -2.8c2.1 -9.5 6 -18.2 11.2 -26.4c5 -7.6 10.5 -14.8 16.2 -21.8c4.9 -6.1 9.6 -12.4 13.7 -19.1c11.1 -18.5 19.4 -38.2 25.1 -59.1c.4 -1.5 .3 -2.9 -.2 -4.5c-2.1 -6.4 -4.2 -12.8 -6.2 -19.3c-3.4 -11.2 -6.1 -22.7 -9 -34q-.6 -2.6 -3.1 -2.5c-9 .3 -18 .7 -27 .3c-8 -.3 -16 -.4 -24 -.8c-8.3 -.4 -16.6 -.7 -24.9 -1.9c-2.4 -.3 -4.8 -.8 -7.1 -1.6c-1.6 -.6 -3.4 -1.2 -3.5 -3.3c-.1 -2.1 1.7 -2.7 3.3 -3.4c1 -.4 2 -.7 3 -1c6.7 -1.9 13.6 -2.9 20.5 -3.3c14.9 -1 29.9 -.8 44.8 -.3c3.4 .1 6.7 .4 10.1 .1Zm145.9 5.3c.1 -.1 .2 -.2 .3 -.3c-.7 -1.6 -1.3 -3.2 -2 -4.7c-5.6 -12.6 -11.6 -25 -17.3 -37.6c-6.3 -13.7 -13.1 -27.1 -20.7 -40.2c-1.2 -2 -2.5 -3.8 -3.9 -5.6c-.7 -.8 -1.2 -1.1 -2.3 -.5c-1.3 .7 -2.8 1.2 -4.3 1.7c-7.1 2.2 -14.1 4.5 -21.2 6.6c-11.6 3.5 -23.2 6.9 -34.7 10.3c-1.3 .4 -2.2 .7 -2.2 2.4c.1 8.1 -.5 16.2 -.3 24.2c.3 10.5 .4 20.9 -.2 31.3c-.1 1.7 -.3 3.4 .2 5.2c3 -.4 6 -.7 9 -1.1c15.4 -2.2 30.8 -2.2 46.2 -1.1c11.1 .7 22.1 2.1 33.1 3.7c7 1.1 14.1 1.8 20.3 5.7ZM1531.3 992.9c-7.7 -.1 -16.2 -.2 -24.7 .5c-4.1 .3 -8.3 .6 -12.3 1.7c-2.4 .7 -3 2.2 -1.9 4.5c.6 1.2 1.6 2.1 2.5 3c3.1 2.9 7 4.5 10.9 5.9c13.8 4.9 27.9 8.1 42.3 10.2c16.3 2.3 32.7 4.1 49.2 5.2c14 .9 28 1.1 42.1 -.3c4.8 -.4 9.5 -1 14.2 -2.3c1.1 -.3 2.2 -.7 3.2 -1.2c1.5 -.7 1.6 -1.4 .5 -2.6c-1.1 -1.2 -2.5 -1.9 -3.9 -2.5c-4.1 -1.9 -8.4 -3.3 -12.7 -4.6c-10.8 -3.1 -21.9 -5.2 -32.8 -7.8c-5.7 -1.3 -11.6 -2.2 -17 -4.4c-.7 -.3 -1.3 -.4 -1.9 -.4c-1.8 -.1 -3.4 -.6 -5.1 -1.1c-1.3 -.4 -2.2 -1.6 -1.6 -2.5c1.1 -1.7 .5 -3.3 .6 -5c0 -4.2 .4 -8.5 .8 -12.7c.9 -9.7 2 -19.3 3.7 -28.9c2 -10.9 4.1 -21.8 5.6 -32.8c1.6 -11.8 3.5 -23.7 5.7 -35.5c1.3 -7.3 2.6 -14.6 3.9 -21.9c.3 -1.4 .1 -1.6 -1 -1.5c-4.2 .7 -8.5 .3 -12.7 .2c-2.1 -.1 -2.2 -.1 -2.3 2.1c-.1 5.4 -.5 10.8 -1.1 16.1c-1.7 13.1 -3.5 26.2 -5.1 39.3c-2.2 17.6 -3.6 35.2 -6 52.7c-1 6.7 -1.3 13.6 -4.2 19.8c-.2 .5 -.4 1 .2 1.3c.8 .6 .4 1.1 -.1 1.6c-1.3 1.1 -2.8 1.8 -4.3 2.4c-2.9 1 -5.9 1.3 -8.9 1.4c-8.3 .5 -16.7 .3 -25.8 .1ZM1784.5 880.8c-.2 .8 .2 1.3 .4 1.9c2.9 8.1 5.7 16.2 8.8 24.2c10.2 26.1 19.4 52.6 28.4 79.2c1.9 5.4 3.3 10.9 3.1 16.7c0 1.7 -.8 2.7 -2 3.6c-.5 .3 -1.1 .5 -1.5 .8c-7.9 5 -15.3 10.6 -22.4 16.6c-3.5 3 -6.7 6.2 -9.4 10c-1 1.3 -1.9 2.7 -2.3 4.3c-.6 2.1 .1 3.3 2.3 3.7c1.3 .3 2.7 .3 4.1 .2c6.5 -.2 12.8 -1.7 18.9 -3.8c9.3 -3.3 17.9 -7.8 26.7 -12.2c17 -8.6 33 -18.9 49.1 -29c3.3 -2.1 6.6 -4.3 9.7 -6.7c2.9 -2.1 5.5 -4.5 7.9 -7.3c.9 -1.1 1.7 -2.2 2.1 -3.5c.9 -2.8 -.4 -4.9 -3.3 -5.4c-2.9 -.5 -5.8 0 -8.7 .4c-8.1 1.4 -15.9 3.6 -23.7 6.3c-7.1 2.4 -14.2 4.7 -21.4 7c-1.6 .5 -3.3 .8 -5 .9c-.6 0 -1.3 -.2 -1.6 .2c-1.1 1.6 -2 .6 -2.9 0c-.7 -.6 -1.3 -1.3 -1.9 -1.9c-6 -6.7 -10 -14.5 -12.6 -23c-3.1 -10.2 -6.3 -20.4 -9.2 -30.7c-5.1 -18.1 -11.8 -35.6 -18.5 -53.1c-.5 -1.3 -1.1 -1.6 -2.3 -1.2c-1.4 .4 -2.8 .5 -4.1 .8c-2.9 .6 -5.8 .6 -8.7 1Zm26.7 -92c-1.7 .3 -3.2 .6 -4.7 .8c-12.3 2 -24.7 4 -37 6c-3.3 .6 -6.7 1 -9.9 2.5c-6.3 2.9 -12.6 5.8 -18.9 8.6c-5.2 2.4 -10.1 5 -15.1 7.7c-3.7 2.1 -7 4.7 -9.5 8.3c-2.2 3.2 -2.2 5.7 .1 9c2.1 3.1 5.2 4.6 8.7 5.4c4.2 1 8.6 1.3 12.9 1.5c10.3 .5 20.3 -1.4 30.3 -3.2c9 -1.5 17.9 -3.2 26.9 -4.1c1.8 -.2 2.7 -.8 3.3 -2.5c4.4 -11.7 8.2 -23.5 12 -35.4c.5 -1.4 .9 -2.8 .9 -4.6ZM1681.4 585.5c-.9 -.3 -1.6 .1 -2.4 .3c-8.2 2.5 -16.5 4.9 -24.9 7.1c-3.4 .8 -5.9 3.1 -7.9 5.8c-1.1 1.4 -1.5 3.1 -1.4 4.9c.1 1.3 .2 2.6 .4 3.9c1.1 6 2.1 12 3.2 18c1.1 6.2 2.3 12.4 3.4 18.5c.2 1.4 .7 2.1 2.3 2.3c2.7 .3 5.5 .6 8.2 1.4c5.4 1.7 10.7 1.5 16.1 0c0 -.1 .1 -.1 .2 -.1c1.4 0 1.7 -.7 1.8 -2c.2 -5.3 .7 -10.6 .8 -15.9c.2 -13.8 .3 -27.7 .4 -41.6c0 -.8 .2 -1.8 -.2 -2.6Zm135.7 183.3c.9 .1 1.6 -.4 2.3 -.6c3.4 -1.1 6.8 -2.4 10.3 -3.3c6.7 -1.9 13.5 -3.7 20.6 -3.7c1.9 .1 3.6 .1 5.1 1.5c3.3 -3.7 6 -7.6 8.3 -11.9c1.5 -2.8 2.7 -5.7 3.3 -8.9c.6 -2.7 .2 -5.3 -1.2 -7.5c-3.3 -5.3 -7.8 -9.3 -14.1 -10.5c-5.5 -1 -11 -.6 -16.4 -.9c-.7 -.1 -1.4 .3 -2.1 .4c-4.7 1.2 -9.4 2.2 -14.2 2.6c-2.4 .2 -3.2 .9 -3.5 3.3c-.1 1.7 -.1 3.4 -.1 5.1c.4 10.6 .8 21.1 1.2 31.6c0 1 -.1 2 .5 2.8Zm66.8 76.3c-.3 -.4 -.3 -.5 -.4 -.5c-15.2 -6.7 -30.9 -11 -47.5 -11.6c-.9 -.1 -1.6 .2 -2.2 .8c-2.5 2.2 -5.3 3.8 -8.2 5.3c-3.2 1.7 -6.4 3.3 -9.6 4.9c-5.6 3 -11.3 5.9 -17.1 8.4c-1 .4 -1.9 .7 -1.8 2.2c.5 6.7 2.1 13.2 4.3 19.5c.2 .8 .7 1 1.4 .8c.5 -.2 1 -.3 1.5 -.4c9.7 -2.6 19 -6.3 28.1 -10.6c7.3 -3.6 14.6 -7.2 22 -10.8c7.4 -3.6 15.1 -6.1 23.2 -7.4c2 -.3 4 -.4 6.3 -.6Zm-101 -189.5c-1.7 -1.6 -3.5 -2.1 -5.3 -2.6c-4.5 -1.3 -9.1 -1.7 -13.7 -2c-9.4 -.7 -18.6 -.2 -27.9 .1c-16.8 .6 -33.5 1.3 -50.2 1.4c-.3 0 -.7 0 -1 0c-1 0 -1.1 .7 -1.1 1.5c0 .5 .3 .9 .5 1.3c1.4 2 1.4 2.4 -.2 4.2c-.3 .2 -.5 .5 -.2 .9c.3 0 .6 0 .9 0c21 -.3 42 .5 62.9 -1c10 -.7 19.9 -1.2 29.8 -2.6c1.7 -.3 3.5 -.3 5.5 -1.2Zm-215.1 .7c1.1 1.1 2.4 1.3 3.5 1.6c4.5 1.2 9 1.6 13.6 1.9c11.4 .8 22.8 1.1 34.3 1.5c10.9 .4 21.8 .3 32.8 -.1c.6 0 1.4 .3 1.6 -.6c.2 -.7 -.5 -1 -.9 -1.4c-1.6 -1.4 -1.6 -1.5 -.6 -3.4c1 -2 -.2 -4 -2.2 -4.1c-.3 -.1 -.5 -.1 -.8 -.1c-15.8 -.7 -31.6 -1.1 -47.5 -.6c-9.9 .3 -19.7 1.1 -29.4 3.5c-1.5 .3 -3 .6 -4.4 1.8Zm103.9 61.3c.1 -.2 .3 -.4 .3 -.7c.2 -.5 .3 -1.1 .4 -1.6c2.8 -11.4 4.6 -23 5.7 -34.7c.5 -5.2 .9 -10.4 1.3 -15.6c.1 -1.3 -.2 -1.8 -1.6 -1.8c-3.4 -.1 -6.8 -.4 -10.2 -.5c-3.5 -.1 -6.9 .6 -10.3 .7c-.7 0 -1.1 .3 -.8 1.1c.1 .4 .1 .8 .2 1.2c4.2 16.8 8.5 33.5 14.1 49.9c.2 .6 .3 1.4 .9 2Zm233.7 132.7c-.1 .1 -.2 .3 -.2 .4c.4 .3 .9 .6 1.4 .9c6.3 3.4 12.4 7.1 18.4 11.2c5.3 3.6 10.7 7.2 16 10.8c6.6 4.7 13.8 8.3 21.5 10.8c4.5 1.5 9 2.7 13.7 2.7c.6 0 1.3 .3 1.8 -.4c-1.3 -1.9 -3.2 -3.2 -5 -4.5c-9.6 -7 -19.9 -12.8 -30.4 -18.2c-7.6 -4 -15.3 -7.9 -23.5 -10.5c-4.5 -1.4 -9 -2.6 -13.7 -3.2Zm-153.2 17.9c1.4 -.1 2.9 -.1 4.3 -.5c4.9 -1.2 9.3 -3.4 13.7 -5.7c1.7 -.9 1.6 -.9 .7 -2.6c-3.4 -5.9 -8.6 -9.6 -15 -11.9c-1.4 -.5 -2.9 -.9 -4.3 -1.7c-.6 -.4 -1.1 -.4 -1.8 0c-3 1.6 -5.8 3.6 -8.2 6.1c-1 1 -1.7 2.3 -2.3 3.6c-.8 1.9 -.7 3.6 .4 5.2c3.1 4.2 6.8 7.4 12.5 7.5ZM1606.8 852.1c3.3 -1.1 6.2 -2.1 8.3 -4.4c1.9 -2 2 -4.2 .4 -6.4c-.7 -.9 -1.5 -1.8 -2 -2.8c-.8 -1.5 .1 -2.8 1.8 -2.7c.9 .1 1.7 .4 2.6 .6c5.1 1.2 10.2 1.6 15.3 .3c5.5 -1.4 7.9 -6.8 5.4 -11.9c-1.8 -3.4 -4.6 -5.7 -8 -7.3c-1.1 -.5 -2.2 -1 -3.3 -1.4c-1.8 -.8 -1.9 -.8 -3 .8c-4.1 5.7 -8 11.6 -11.4 17.9c-2.8 5.3 -4.5 10.9 -6.1 17.3Zm247.5 -88.5c-3.3 .6 -6.1 .4 -8.9 .9c-9.4 1.5 -18.2 4.5 -27.1 7.7c-1 .3 -1.3 1 -1.2 2c.1 2.8 -.1 5.5 -.6 8.3c-.1 .5 -.3 1.1 .1 1.6c11.9 -1.1 31.5 -11.7 37.7 -20.5Zm-60.8 91.6c-1.5 .2 -2.5 1 -3.5 1.5c-4 2.1 -7.9 4.3 -11.5 7.1c-.6 .5 -1.3 .9 -.8 2c2 3.7 3.6 7.6 5.2 11.6c.2 .6 .5 1 1.2 1c4.8 0 9.4 -.7 14.1 -2.3c-2.5 -6.9 -4.2 -13.7 -4.7 -20.9ZM1669.3 568.6c-.7 -.8 -1.4 -.8 -2 -1c-12.1 -3.6 -24.6 -5.2 -37.1 -6.6c-6.5 -.8 -13.1 -1.4 -19.7 -1.8c-5 -.4 -10 -.7 -14.9 -.6c-1.4 .1 -2.8 .3 -4.5 .5c1.1 .9 2 1.1 2.8 1.4c5.3 1.7 10.8 2.8 16.3 3.3c15 1.4 29.9 3.4 44.9 4.3c4.6 .2 9.2 .7 14.2 .5Zm106.3 221.9c.1 .2 .2 .4 .2 .5c.5 0 1 -.1 1.5 -.1c6.2 -1 12.5 -2.1 18.8 -3c5 -.8 9.9 -1.6 14.9 -2.5c1.2 -.2 1.8 -.7 2.2 -1.9c.7 -2.6 1 -5.3 1.1 -8c0 -.5 .2 -1.1 -.6 -1.6c-13 4.5 -25.3 11.1 -38.1 16.6Zm54.7 42.2c-2.1 0 -3.6 .1 -5.1 0c-5.3 -.4 -9.9 1.5 -14 4.4c-4.5 3.2 -8.6 6.9 -13.2 10c-.8 .6 -1.1 1.2 -.6 2.1c4.5 -1.3 30.2 -14 32.9 -16.5ZM1654.8 657.4c.7 .9 1.7 1 2.6 1.2c7 2 14 1.5 21 .1c.8 -.2 1.4 -.4 1.5 -1.4c0 -.9 0 -1.8 -1.1 -2.1c-2 -.7 -4 -1.5 -6 -2.1c-2.1 -.7 -4.1 -.7 -6.3 -.2c-3.3 .9 -6.5 1.9 -9.7 3.2c-.7 .2 -1.6 .3 -2 1.3Zm87.5 -93.9c0 -.1 0 -.3 -.1 -.5c-1.4 .2 -2.8 .4 -4.3 .6c-6.3 1.2 -12.5 3.1 -18.6 5.1c-11 3.5 -22 6.9 -32.9 10.4c-.8 .2 -1.8 .5 -1.4 1.6c.3 .8 1.2 .2 1.7 .1c.1 0 .2 0 .3 -.1c15.5 -4.5 31 -8.9 46.4 -13.9c3 -1 6 -1.9 8.9 -3.3Zm-1.2 84.4c-12.8 -2.1 -44.3 -1.2 -54.5 1.6c3.9 .6 48.1 -.7 54.5 -1.6ZM1641 591.5c3.9 .4 7.6 .3 11.1 -1.4c6.6 -3.1 13.3 -6.1 20.2 -8.7c.8 -.3 1.8 -.5 2.9 -1.5c-12.4 2.1 -23.7 5.4 -34.2 11.6Zm7.1 -121.8c-4.6 4.7 -18.6 27 -19.1 31.5c.3 -.3 .5 -.5 .7 -.7c6.6 -8.2 12.3 -16.9 16.9 -26.3c.7 -1.3 1.3 -2.6 1.5 -4.5Zm164.1 364c0 -.2 -.1 -.4 -.1 -.6c-3.5 .3 -7 .5 -10.5 .7c-.7 .1 -1.3 .3 -1.5 1c-.9 3 -1.9 5.9 -2.3 9.3c5.4 -3.1 9.5 -7.3 14.4 -10.4ZM1780 878.1c-1.6 -4 -3 -7.4 -4.9 -10.7c-2.2 2 -3.3 4.5 -2.5 6.5c1.2 3.2 4.1 3.6 7.4 4.2ZM1732.3 525.8c-3.3 2.5 -6.1 4.8 -8 8c-.3 .5 -.6 1 -.8 1.5c-.2 .6 -.4 1.3 .2 1.9c.5 .5 1.2 .1 1.8 -.2c1 -.4 1.8 -1.1 2.5 -1.9c2.2 -2.5 3.9 -5.3 4.3 -9.3Zm-58.9 -8.7c3.8 -3.1 6 -6.8 5.4 -9.2c-2.9 2.3 -4.1 5.4 -5.4 9.2Zm-3.3 68.1c1 .3 1.6 -.1 2.2 -.3c2.8 -.8 5.6 -1.6 8.4 -2.4c.7 -.2 1.1 -.6 .9 -1.2c-.3 -.7 -.9 -.4 -1.3 -.2c-3.4 1.2 -6.8 2.3 -10.2 4.1ZM1604.7 480.4c.7 2.5 1.2 4.9 1.9 7.7c1.1 -3.5 .4 -5.9 -1.9 -7.7Zm53.8 172.2c-.1 -.2 -.1 -.4 -.2 -.6c-1.3 0 -2.5 0 -3.8 0c-.9 0 -.8 .6 -.7 1.2c.1 .5 .2 1.2 1 .9c1.2 -.4 2.5 -1 3.7 -1.5Zm163.8 69.7c-2.3 -.1 -4.6 -1.1 -7.3 0c2.7 1.1 5 0 7.3 0ZM1655 510.5c-.9 1.1 -2.1 2.1 -2.1 4.1c1.2 -1.4 1.8 -2.6 2.1 -4.1Zm138.3 340.3c-.7 0 -1.2 .5 -1.6 .9c-.2 .1 -.1 .3 .1 .3c.5 -.2 1.1 -.4 1.4 -.8c.1 -.1 .1 -.2 .1 -.4Z" class="g1_7"/>
</svg>